<?xml version="1.0" encoding="UTF-8"?><svg id="a" xmlns="http://www.w3.org/2000/svg" viewBox="0 0 1262.82 1101.24"><rect x="362.1" y="354.16" width="259.56" height="46.81"/><rect x="452.18" y="400.98" width="79.41" height="36.15"/><path d="M452.18,437.12h-86.52s-7.41-2.07-21.04,14.22l-77.63,77.63-69.04,1.19s-12.74.89-16,12.44v68.74h-40.89v-66.07h-67.85v210.07h66.96l.3-65.19,40.89.3v113.48s1.19,12.44,15.41,13.93h71.11l135.41,133.33s8.89,8,22.22,7.41l-1.78-51.85s-12.15-3.85-13.04-16.89-1.19-53.93-1.19-53.93l-53.93.59s-15.11-2.37-15.41-17.78-4.44-54.52-4.44-54.52h-48s-13.63-2.96-13.93-17.78,8-17.19,14.81-17.48,39.11.3,39.11.3l412.44-.3,20.44-146.07-.59-21.04s.89-3.83-7.11-11.25-104-105.49-104-105.49c0,0-4.74-8.3-25.48-8s-91.85,0-91.85,0h-79.41Z"/><path d="M760.62,582.9h54.59v-27.85s1.56-17.33,18.67-16.44l61.78-.03s26.22,8.4,40.44,44.33c0,0,12.89,14.81-6.44,24.37,0,0-57.56,34.44-73.33,80.44,0,0-19.78,38.22-17.33,73.56l.22,75.78h-30.22l-.67,92.89s-3.33,27.62-35.33,28.7-39.56,0-39.56,0l-1.33-51.36,8.89.22s14.67-4.22,13.78-17.56-6-17.78-20.22-16.89-2.22-36.89-2.22-36.89c0,0,21.78,1.33,22.89-17.56s-20.89-18-22.67-18,0-36.22,0-36.22c0,0,23.33,2,21.33-17.78,0,0,1.31-14.32-13.57-18.61s20.31-145.1,20.31-145.1Z"/><path d="M340.18,818.75s-1.85-17.11,15.93-17.11,376.44-1.04,376.44-1.04v-36.22s-396.81-.15-396.81-.15l4.44,54.52Z"/><path d="M410.7,889.87s1.03-14.18,13.03-16.85,308.82,0,308.82,0l-.22-36.86-322.81-.22,1.19,53.93Z"/><polygon points="425.51 958.61 733.44 958.64 732.1 907.27 423.73 906.75 425.51 958.61"/><path d="M73.21,545.27s1.03-15.07,19.11-15.22,32.15,0,32.15,0c0,0,12.46,1.54,16.6,15.22h-67.85Z"/><path d="M140.18,755.35s-4.45,17.3-18.23,16.41h-31.7c-16.44-1.19-17.03-16.41-17.03-16.41"/><path d="M362.1,354.16s-18.15,1.45-17.26,22.49c0,0-1.91,21.99,17.26,24.33s0-46.81,0-46.81Z"/><path d="M621.66,354.16s15.11-1.11,15.48,22.93c.3,19.41-15.48,23.88-15.48,23.88v-46.81Z"/><path d="M1004.25,512.65s-.44,106.67-63.56,141.78c0,0-53.33,27.26-57.78,105.48l-.3,170.67s.89,28.05,37.04,28.54h241.48s36.74-.1,33.78-35.36l.17-182.52s-6.39-43.85-28.91-75.56c0,0-68.15-131.26-70.81-152l-91.11-1.04Z"/><path d="M998.47,427.39h96.89s12.67,1.33,11.78,16.44l.04,26s1.29,16.44-16.93,16.44h-88.89s-17.33-.89-14-18l-.43-26.44s-2.69-14.44,11.54-14.44Z"/><path d="M919.65,347.09s48.89-.3,57.19,25.78c0,0,4.15,1.78-11.56,9.19,0,0-16.3,13.93-18.37,28.15,0,0-31.7,57.78-69.93,73.78,0,0-24.3,5.04-13.04-16.59,0,0,54.22-68.74,55.7-120.3Z"/><path d="M914.91,265.61v53.33s100.74-5.93,96.89,81.78h77.04s1.19-42.96,48.89-45.33c0,0,42.67-14.22,5.04-47.11s-49.48-45.63-103.41-46.52l-124.44,3.85Z"/><path d="M886.76,266.8v51.26h-24.3s-13.33.89-17.19-18.96v-18.37s.56-13.63,15.69-13.93,25.79,0,25.79,0Z"/><circle cx="521.13" cy="179.98" r="24.89"/><circle cx="571.21" cy="257.61" r="21.63"/><circle cx="608.25" cy="191.54" r="18.67"/><circle cx="670.76" cy="132.58" r="18.96"/><circle cx="573.87" cy="98.2" r="18.37"/><circle cx="672.54" cy="273.61" r="25.78"/><circle cx="706.32" cy="358.35" r="18.37"/><circle cx="756.69" cy="319.54" r="17.48"/><circle cx="801.13" cy="276.87" r="16.89"/><circle cx="756.69" cy="233.61" r="17.19"/><circle cx="709.87" cy="195.98" r="17.78"/></svg>