<?xml version="1.0" encoding="UTF-8"?><svg id="a" xmlns="http://www.w3.org/2000/svg" viewBox="0 0 1699.41 967.11"><circle cx="373.89" cy="478.54" r="160.73" stroke="#000" stroke-miterlimit="10"/><circle cx="856.56" cy="478.54" r="160.73" stroke="#000" stroke-miterlimit="10"/><circle cx="1333.89" cy="478.54" r="160.73" stroke="#000" stroke-miterlimit="10"/><circle cx="373.89" cy="478.54" r="224.06" fill="none" stroke="#000" stroke-miterlimit="10"/><circle cx="197" cy="235.11" r="31.11" fill="none" stroke="#000" stroke-miterlimit="10"/><path d="M120.11,164.89h323.11l68.44,63.11v73.83s-60.89-51.61-144-47.36c0,0-179.67-1.99-215.84,193.99h-31.72v-182.24h108v-62.22h-108v-39.11Z" stroke="#000" stroke-miterlimit="10"/><path d="M197,204s-29.04,0-31.11,31.11c0,0-.37,29.41,31.11,31.11h-76.89v-62.22h76.89Z" stroke="#000" stroke-miterlimit="10"/><path d="M198.26,204s28.15.3,29.85,31.11c0,0,1.7,26.96-29.85,31.11h29.85v-62.22h-29.85Z" stroke="#000" stroke-miterlimit="10"/><circle cx="198.34" cy="723.19" r="32.15" fill="none" stroke="#000" stroke-miterlimit="10"/><circle cx="626.04" cy="662.44" r="32.15" fill="none" stroke="#000" stroke-miterlimit="10"/><circle cx="733.89" cy="751.93" r="32.15" fill="none" stroke="#000" stroke-miterlimit="10"/><circle cx="933" cy="751.93" r="32.15" fill="none" stroke="#000" stroke-miterlimit="10"/><circle cx="1086.48" cy="662.44" r="32.15" fill="none" stroke="#000" stroke-miterlimit="10"/><circle cx="1529.15" cy="723.48" r="32.15" fill="none" stroke="#000" stroke-miterlimit="10"/><circle cx="1529.15" cy="234" r="32.15" fill="none" stroke="#000" stroke-miterlimit="10"/><circle cx="1085.89" cy="295.04" r="32.15" fill="none" stroke="#000" stroke-miterlimit="10"/><circle cx="626.63" cy="295.04" r="32.15" fill="none" stroke="#000" stroke-miterlimit="10"/><path d="M120.11,448.47v343.61h78.22v-36.74s-31.26-.3-32.15-32.15c0,0-.67-29.85,32.15-32.15v-73.26s-60.34-64.11-46.5-169.31h-31.72Z" stroke="#000" stroke-miterlimit="10"/><path d="M198.34,792.07h187.78l61.33-60.07v-41.75s-141.78,56.43-249.11-72.47v73.26h32.15v64.3h-32.15v36.74Z" stroke="#000" stroke-miterlimit="10"/><path d="M198.34,690.22s32.15,3.7,32.15,32.96c0,0,.96,28.52-32.15,32.15h32.15v-64.3l-32.15-.81Z" stroke="#000" stroke-miterlimit="10"/><path d="M597.95,475.04s12.75,149.98-150.51,215.21v41.75h178.59v-37.41h-32.15v-64.3h32.15l.59-303.11h-32.15v-64.3h32.15v-35.85l-114.96.96v73.83s85.78,62.61,86.29,173.2Z" stroke="#000" stroke-miterlimit="10"/><path d="M626.04,630.3s-28.3-1.52-32.15,32.15c0,0-.96,29.96,32.15,32.15h-32.15v-64.3h32.15Z" stroke="#000" stroke-miterlimit="10"/><path d="M626.63,262.89s-30.07.7-32.15,32.15c0,0-.07,29.52,32.15,32.15h-32.15v-64.3h32.15Z" stroke="#000" stroke-miterlimit="10"/><circle cx="856.56" cy="478.54" r="224.06" fill="none" stroke="#000" stroke-miterlimit="10"/><circle cx="1337.23" cy="478.54" r="224.06" fill="none" stroke="#000" stroke-miterlimit="10"/><path d="M626.63,227.04v35.85c33.33,2.48,32.15,32.15,32.15,32.15-2.96,33.07-32.15,32.15-32.15,32.15l-.3,151.35h6.16c15.27-228.39,224.06-224.06,224.06-224.06l-.37-27.62-229.56.19Z" stroke="#000" stroke-miterlimit="10"/><path d="M632.49,478.54s-1.68,205.07,217.21,224.06v17.17h-147.96v98.93l-57.78-86.7h-17.93v-37.41h32.15l.59-64.31h-32.74s.3-151.75.3-151.75h6.16Z" stroke="#000" stroke-miterlimit="10"/><path d="M856.19,226.85l261.85.69v67.5s1-29.39-32.15-32.15c0,0-29.07-1.69-32.15,32.15h-68.58s-51.01-39.99-128.61-40.56l-.37-27.62Z" stroke="#000" stroke-miterlimit="10"/><path d="M985.16,295.04s95.65,61.47,95.39,178.17h32.61l4.87-178.17s-1.67,29.57-32.15,32.15c0,0-31.74-1.39-32.15-32.15h-68.58Z" stroke="#000" stroke-miterlimit="10"/><path d="M1337.23,254.48s-31.12-1.02-70.25,11.13c-43.23,13.43-96.23,42.93-127.81,107.67-13.08,26.81-22.49,59.67-26,99.93h-32.61l37.48-178.17v-67.5h87.89l60.89-60.44h262.33v34.76s-32.15,0-32.15,0v64.3h-88.2s-24.25-9.62-71.56-11.67Z" stroke="#000" stroke-miterlimit="10"/><path d="M1529.15,167.1h58.55v66.9h-26.41s1.74-29.39-32.15-32.15c0,0-32.15,2.16-32.15,32.15h-24.41v-66.9h56.56Z" stroke="#000" stroke-miterlimit="10"/><path d="M1561.3,234s.41,28.53-32.15,32.15c0,0-29.67-.65-32.15-32.15h-86.63v32.69s144.99,44.93,150.86,206.52h26.47v-239.21h-26.41Z" stroke="#000" stroke-miterlimit="10"/><path d="M1333.89,702.6s217.76-.47,227.34-229.4h26.47v318.93h-26.41v-100.8h-64.3v64.3h-159.77l-3.34-53.03Z" stroke="#000" stroke-miterlimit="10"/><path d="M1497,723.48s-1.07-29.17,32.15-32.15c0,0,29.96,1.05,32.15,32.15h26.41v-52.68h-109.11v52.68h18.41Z" stroke="#000" stroke-miterlimit="10"/><path d="M1497,723.48s0,30.31,32.15,32.15c0,0,30.85-1.02,32.15-32.15h26.41v68.65h-105.33v-68.65h14.63Z" stroke="#000" stroke-miterlimit="10"/><polygon points="1333.89 702.6 1333.89 792.13 1482.37 792.13 1482.37 755.63 1333.89 702.6" stroke="#000" stroke-miterlimit="10"/><path d="M1113.17,473.21s-6.69,208.52,220.72,229.4v89.53h-5.96l-66.22-60.22h-216l.22-37.32h72.93l-.22-64.3h-64.3v-46.37s31.3-51.65,26.22-110.72h32.61Z" stroke="#000" stroke-miterlimit="10"/><path d="M849.7,702.6s128,11.23,204.63-118.68v147.98h-16.63l-59.56,86.79h-276.41v-34.63l263.41,2.06v-66.35h-115.45v-17.17Z" stroke="#000" stroke-miterlimit="10"/><path d="M626.04,630.3s29.96.02,32.15,32.15c0,0,2.41,27.72-32.15,32.15h32.15l.59-64.31h-32.74Z" stroke="#000" stroke-miterlimit="10"/><path d="M733.89,719.78s-29.22-1.17-32.15,32.15c0,0-1.67,28.76,32.15,32.15h-32.15v-64.3h32.15Z" stroke="#000" stroke-miterlimit="10"/><path d="M933,719.78s28.7-1.61,32.15,32.15c0,0,.93,29.42-32.15,32.15v1.81l32.15.25v-66.35h-32.15Z" stroke="#000" stroke-miterlimit="10"/><path d="M733.89,719.78s30.93.39,32.15,32.15c0,0,1.59,28.53-32.15,32.15l199.11,1.81v-1.81s-29.89-1.24-32.15-32.15c0,0,.56-29.84,32.15-32.15s1.34,0,1.34,0h-200.45Z" stroke="#000" stroke-miterlimit="10"/><path d="M1054.34,662.44s.85,31.2,32.15,32.15c0,0,29,1.87,32.15-32.15l.22,32.15-64.52.02v-32.17Z" stroke="#000" stroke-miterlimit="10"/><path d="M1054.34,662.44s1.52-30.28,32.15-32.15c0,0,30.11-.28,32.15,32.15v-32.15h-64.3v32.15Z" stroke="#000" stroke-miterlimit="10"/><path d="M1140,371.61s26.85-65.22,115.32-102.05-66.42-5.94-66.42-5.94l-67.56,98.89,18.66,9.11Z" stroke="#000" stroke-miterlimit="10"/></svg>