<?xml version="1.0" encoding="UTF-8"?><svg id="a" xmlns="http://www.w3.org/2000/svg" viewBox="0 0 885.44 862.03"><path d="M369.88,246.57s29.33-55.11,38.22-68l14.67,12.44s8.44,5.19,16-7.85l16-18.81s3.56-7.56-4.89-16l-101.33-100.89s-29.78-27.11-70.22-8l-32,24s-8,10.67,2.67,17.33l32.89,30.22-30.22,31.56,56.44,55.56,27.56-27.56h34.22s-15.11,53.33-16.44,78.22c0,0,5.33,14.67,16.44,0" stroke="#000" stroke-miterlimit="10"/><path d="M236.7,148.94l65.33,64s11.56,15.56,0,31.56-60.44,102.67-60.44,102.67c0,0-5.78,18.22-24,30.67l-64,65.33s-18.22,16-39.11,1.78L3.36,331.61s-12-20.44,9.33-37.33l62.22-62.22s14.67-19.56,41.33-28.89l91.11-54.22s14.67-10.67,29.33,0Z"/><path d="M445.14,226.72l91.56,132s13.33,8,10.22-6.67-91.41-130.22-91.41-130.22c0,0-11.26-9.33-10.37,4.89Z"/><path d="M468.25,200.5l201.78,154.67s21.78,9.78,8.89-9.33-200.89-154.22-200.89-154.22c0,0-16-8-9.78,8.89Z"/><path d="M540.25,184.94s38.22,2.22,42.67,41.78c0,0,5.19-45.33,41.93-41.78,0,0-37.33-1.93-42.3-40.97,0,0-6.3,44.52-42.3,40.97Z" stroke="#000" stroke-miterlimit="10"/><path d="M624.84,82.28S696.25,76.5,704.7.05c0,0,2.67,73.78,78.67,82.22,0,0-63.41-3.11-79.26,77.33,0,0-.44-69.78-79.26-77.33Z" stroke="#000" stroke-miterlimit="10"/><path d="M750.47,224.05s56-1.78,66.22-67.56c0,0,7.56,61.33,64.44,67.56,0,0-53.33,6.67-62.67,64.44,0,0-4.89-50.67-68-64.44Z" stroke="#000" stroke-miterlimit="10"/><circle cx="507.22" cy="565.83" r="254.67" fill="none"/><circle cx="507.22" cy="565.83" r="201.78" fill="none"/><circle cx="507.22" cy="567.86" r="48.89" fill="none"/><circle cx="507.22" cy="567.86" r="33.53"/><path d="M507.22,311.17s-78.75-4.32-154.41,52.14l32.68,41.6s49.73-41.81,121.73-40.85v-52.89Z"/><path d="M507.22,311.17s84.45-4.02,158.41,55.25l-26.3,46.9s-53.15-50.67-132.11-49.26v-52.89Z"/><path d="M352.8,363.3s-62.39,43.53-88.17,124.81l51,14.23s14.71-55.41,69.85-97.44l-32.68-41.6Z"/><path d="M665.62,366.42s74.75,54.52,91.73,151.34l-51.79,10.84s-10.12-70.91-66.23-115.28l26.3-46.9Z"/><path d="M264.63,488.11s-34.04,94.66,11.38,184.63l51.14-15.77s-39.99-70.56-11.52-154.63l-51-14.23Z"/><path d="M705.56,528.6s26.64,116.94-71.56,194.2l31.96,42.18s122.71-87,91.39-247.22l-51.79,10.84Z"/><path d="M327.15,656.97s43.57,88.86,134.12,105.38l-2.94,53.46s-119.89-14.08-182.31-143.06l51.14-15.77Z"/><path d="M392.22,732.2s30.54,21.9,70.92,30.58c96.86,20.83,170.87-39.98,170.87-39.98l31.96,42.18c-102.14,80.33-207.64,50.83-207.64,50.83"/><path d="M316.7,493.24s-1.93,17.04.74,16.44l122.22-12s52.22-42.15,134.44-1.26l125.56,13.27s2.44-3.05,0-10.16l29.33,31.78-15.78,3.02,1.56,19.42-158.67,12.07v-46.86h-98.67l.89,97.78h-44.44s-32.22-43.22-105.78-40.33c0,0-1.11-2.22-4.22,6.67s-1.11.44-1.11.44l-10.44-54.44,24.37-35.85Z"/><path d="M708.58,576.23s-66.7-10.25-120.48,52.86c0,0-44.52,47.63-40.37,123.78,0,0,.3,12.74,9.78,10.07l-16.77,27.85-66.78-6.22-19.85-19.6s13.33-2.62,12.44-11.81c0,0,1.33-91.79-52.67-136.41l93.33,1.9,52.37-12.44-3.48-40.37,91.19-18.17,64.59-2.5,6.81,27.85-10.11,3.21Z"/><path d="M458.33,567.86s.37,45.73,48.89,48.89v9.16l-88.51-4.91-2.08-22.42,22-36.67,19.7,5.96Z"/><path d="M556.1,565.83s1.93,47.32-48.89,50.92l-11.04,12.27,39.56,3.33s41.56-16.44,42-17.33,10.44-33.11,10.44-33.11l-2.36-22-29.72,5.92Z"/><path d="M507.22,518.97s-45.85-1.16-48.89,48.89-32.37-25.96-32.37-25.96l22.22-35.56,38.89-4.01,22.22,7.79-2.07,8.84Z"/><path d="M556.1,567.86s3.85-41.82-46.81-48.89,5.56-18.4,5.56-18.4l42.89,8.22,23.56,14.89v36.23l-25.19,7.95Z"/></svg>