<?xml version="1.0" encoding="UTF-8"?><svg id="a" xmlns="http://www.w3.org/2000/svg" viewBox="0 0 953.67 1001.06"><rect x="433.11" y="780.02" width="91.11" height="217.07" rx="12" ry="12" transform="translate(-528.53 823.62) rotate(-58)"/><path d="M432.8,797.83l149.04,90.73,10.37-10.73s11.41-10.22,27.26-10.52c0,0,12.74-1.78,37.78-18.37l134-114.3-42.37-34.74-74.37,64s-9.63,5.93-6.37-4.59,99.26-161.48,99.26-161.48l-40-25.19-65.63,109.04s-6.37,4.15-5.48-3.56,83.85-140.07,83.85-140.07l-40.44-24.22-83.56,139.33s-6.67,4.22-5.56-4l84.22-139.78-40.44-24.22-85.33,144.67s-6.89,2.89-5.11-4.44l64.44-107.56-36.67-17.3-118.67,195.3s-24.44,42.22-26.67,72.44c0,0-4.67,15.33-13.56,29.56Z"/><path d="M591.69,500.53s10.04-10.26,25.3-3.3,11.37,20.59,11.37,20.59"/><path d="M694.8,509.38s9.3-21.33-15-29.33c-16.51-5.44-25.44,5.11-25.44,5.11"/><path d="M699.69,513.83s11.81-16.15,30.04-4.44,10.41,28.67,10.41,28.67"/><path d="M727.39,572.64s12.11-15.11,30.78-5.33,9.22,30.52,9.22,30.52"/><path d="M748.87,699.9s18.26-14.22,37.52,0,4.85,34.74,4.85,34.74"/><path d="M440.17,510.57s2.37,71.11-80.59,81.48c0,0,71.48-2,80.6,78.81,0,0,5.78-74.26,80.59-80.15,0,0-70.07,1.78-80.59-80.15Z"/><path d="M380.61,793.09H100.76s-22.22-1.78-21.93-24.89V70.12l373.93.59s40-2.07,74.67,10.37,60.15,35.26,60.15,35.26l106.96,121.48,114.96,133.33,47.11,56.3s22.81,24.67,27.26,73.07v267.07s-2.37,24.59-26.07,25.48-93.63,0-93.63,0l-43.56,38.81h144.3s50.37-6.52,54.52-56.59l1.19-170.07-.3-104.7s-1.48-56.48-33.78-95.89l-121.19-141.04-105.19-122.07-45.33-49.48s-34.96-43.26-114.07-53.93c0,0-60.15-8.3-103.7-5.93l-336.59-.43s-20.74-2.54-19.85,22.65l-.03,130.07.03,183.11-.3,196.44.3,211.26s-2.96,56,65.78,56.59h247.7l26.52-38.81Z"/><polygon points="170.06 476.16 288.57 476.16 288.57 529.79 170.06 531.27 170.06 476.16"/><path d="M170.06,476.16s-23.11,2.37-22.81,27.56,22.81,27.56,22.81,27.56"/><path d="M288.57,476.16s22.22,1.48,22.81,27.56-22.81,26.07-22.81,26.07"/><path d="M151.83,141.79v244.44l578.67.89-182.67-210.67s-28.89-38.67-80.44-34.22l-288.44-.44-.89-37.78h290.67s67.11,1.33,100.89,42.22l215.56,244.89s18.67,26.22-10.67,32H131.39s-17.78-.44-17.33-23.11V121.79s-2.67-16.44,16.89-17.78l20.89,37.78Z"/><polygon points="130.95 104.01 178.06 104.01 178.95 141.79 151.83 141.79 130.95 104.01"/></svg>