<?xml version="1.0" encoding="UTF-8"?><svg id="a" xmlns="http://www.w3.org/2000/svg" viewBox="0 0 1274.98 1005.95"><circle cx="350.97" cy="865.2" r="82.52"/><circle cx="957.64" cy="865.2" r="82.52"/><path d="M236.34,876.86l.26-24.5s9.19-98.81,114.37-101.69c0,0,112.74-1.57,114.52,124.89h24.89l-2.67-154.87-271.56-4v160.22l20.19-.06Z"/><path d="M843.71,876.91s-9.31-116.95,113.93-129.39c0,0,112.46,1.33,114.52,127.11l27.39-.44v-156.89l-276.44-3.11v162.73h20.61Z"/><path d="M216.15,876.92h-45.8s-26.44-5.11-29.33-30.22v-46.67s29.11-85.78,64.67-107.56c0,0,26.22-23.11,60.44-26.22l158.22-29.33-2.52,85.69-160.44-3.03-45.24,157.35Z"/><path d="M424.36,636.92l90.59-117.48s22.22-27.85,62.22-29.63l171.85-.3v32.59h-167.7s-24.89-1.19-44.44,22.81-67.26,89.78-67.26,89.78l-45.26,2.22Z"/><polygon points="421.92 719.73 424.36 636.92 469.62 634.7 747.25 634.7 747.25 521.07 783.69 521.07 783.69 719.73 487.71 720.7 421.92 719.73"/><path d="M749.03,489.51h141.63s36.44-1.19,65.48,31.41,78.52,97.78,78.52,97.78c0,0,8.59,18.07,34.67,20.44,0,0,29.33,2.67,49.19,16.89,0,0,26.07,20.44,24,48.59l.12,25.19h-43.08v-12.52l-276.44-3.11-39.41,5.55v-85.92s218.96.89,218.96.89l-75.26-94.81s-15.7-18.67-39.41-18.37-106.37.89-106.37.89l-32.59-1.33v-31.56Z"/><path d="M1142.62,729.81v106.96s-10.64,39.26-43.08,37.41v-144.37h43.08Z"/><polygon points="490.38 875.57 823.1 876.91 823.1 714.18 783.69 719.73 487.71 720.7 490.38 875.57"/><path d="M494.06,337.29s29.33-55.11,38.22-68l14.67,12.44s8.44,5.19,16-7.85l16-18.81s3.56-7.56-4.89-16l-101.33-100.89s-29.78-27.11-70.22-8l-32,24s-8,10.67,2.67,17.33l32.89,30.22-30.22,31.56,56.44,55.56,27.56-27.56h34.22s-15.11,53.33-16.44,78.22c0,0,5.33,14.67,16.44,0"/><path d="M360.88,239.66l65.33,64s11.56,15.56,0,31.56-60.44,102.67-60.44,102.67c0,0-5.78,18.22-24,30.67l-64,65.33s-18.22,16-39.11,1.78l-111.11-113.33s-12-20.44,9.33-37.33l62.22-62.22s14.67-19.56,41.33-28.89l91.11-54.22s14.67-10.67,29.33,0Z"/><path d="M569.32,317.44l91.56,132s13.33,8,10.22-6.67-91.41-130.22-91.41-130.22c0,0-11.26-9.33-10.37,4.89Z"/><path d="M592.43,291.22l201.78,154.67s21.78,9.78,8.89-9.33-200.89-154.22-200.89-154.22c0,0-16-8-9.78,8.89Z"/><path d="M664.43,275.66s38.22,2.22,42.67,41.78c0,0,5.19-45.33,41.93-41.78,0,0-37.33-1.93-42.3-40.97,0,0-6.3,44.52-42.3,40.97Z"/><path d="M749.03,172.99s71.41-5.78,79.85-82.22c0,0,2.67,73.78,78.67,82.22,0,0-63.41-3.11-79.26,77.33,0,0-.44-69.78-79.26-77.33Z"/><path d="M874.65,314.77s56-1.78,66.22-67.56c0,0,7.56,61.33,64.44,67.56,0,0-53.33,6.67-62.67,64.44,0,0-4.89-50.67-68-64.44Z"/></svg>