<?xml version="1.0" encoding="UTF-8"?><svg id="a" xmlns="http://www.w3.org/2000/svg" viewBox="0 0 997.67 1004.06"><path d="M557.87,350.04v35.56h29.33l1.19-35.56s24.15-118.67,152.59-123.56v-30.22s-136.89-3.56-172.44,121.78c0,0-1.19,6.67-18.52-6.37l-12.3,28.15,20.15,10.22Z"/><path d="M277.43,423.07s46.22-128,186.07-129.78c0,0,34.96-4.15,86.52,18.37l-12.3,28.15s-33.93-17.48-75.41-15.11c0,0-104.89-5.33-154.67,108.44l-30.22-10.07Z"/><path d="M178.02,511.07s-5.33-53.63,27.26-71.11c0,0,25.19-25.78,72.15-16.89l30.22,10.07s-4.89,6.81,6.67,10.37c0,0,9.78,9.78,1.48,19.56,0,0-11.26,10.96-25.48,0,0,0-8-14.52-32.3-12.44,0,0-47.11-4.74-49.19,49.78,0,0-1.48,24.3,16.89,35.85,0,0,8.59,7.41,0,19.26s-25.48-1.78-25.48-1.78l-8.59-10.37s-4.74-6.52-11.26,1.19-45.63,33.19-42.37,81.19,20.44,59.85,20.44,59.85c0,0,17.66,29.04,70.02,35.56,0,0,24.5.3,32.8-2.96,0,0,3.85-2.96-3.56-39.41,0,0-1.78-20.15,13.93-21.63s16.3,17.19,16.3,17.19c0,0-.89,52.15,15.11,60.15l-19.56,29.63-7.11-17.48s-2.67-4.74-18.67,3.56-69.93,0-83.85-12.15-56.3-29.63-64-82.07c0,0-11.26-52.74,15.7-98.67,0,0,21.63-35.56,52.44-46.22Z"/><path d="M557.87,385.59s3.19,10.52,14.89,10.67,14.44-10.67,14.44-10.67h-29.33Z"/><path d="M740.98,226.48s69.78-1.7,116.44,56.52,31.56,136.89,31.56,136.89c0,0-18.67,79.11-105.33,107.11,0,0-6.22,5.33-47.56,7.11v28.44h15.56s19.56,0,30.67-3.11c0,0,88-15.11,124-94.22,36-79.11,6.22-152.44,6.22-152.44,0,0-30.67-108.59-171.56-116.52v30.22Z"/><path d="M303.06,734.48s46.07,93.85,159.85,57.7c0,0,25.19-14.52,30.81,14.22s43.56,49.78,43.56,49.78c0,0,28.15,13.93,62.52-5.63s34.96-64,34.96-64l30.81-.59s2.67,61.33-36.74,82.07c0,0-21.33,23.7-67.56,24s-76.94-33.19-76.94-33.19c0,0-10.17-11.56-15.5-28.15,0,0,.3-11.85-14.52-2.07,0,0-39.41,13.33-88.59-2.67s-82.22-61.85-82.22-61.85l19.56-29.63Z"/><path d="M752.1,561.07l30.22-1.63s4.15,65.63-15.11,89.93-17.19,40.3-62.22,65.78c0,0-12.15,2.37-12.74,14.52s-11.56,23.41-11.56,23.41c0,0-5.63,4.44-10.07,6.81,0,0-10.67,3.26-5.93,11.26,0,0,2.37,11.85.89,14.81s-30.81.59-30.81.59c0,0,2.07-15.41-4.44-25.48,0,0-10.07-17.78,11.85-20.15s20.44-25.78,20.44-25.78c0,0-4.44-21.33,18.07-23.41s54.81-52.74,54.81-52.74c0,0,22.22-30.81,16.15-76.44"/><path d="M736.1,534.11s-11.26,2.52-11.26,13.19,11.26,15.26,11.26,15.26v-28.44Z"/><circle cx="272.98" cy="263.59" r="32.44" fill="none" stroke="#ff1717" stroke-miterlimit="10"/><circle cx="272.98" cy="263.59" r="62.22" fill="none" stroke="#ff1717" stroke-miterlimit="10"/><path d="M272.98,201.37s-56.15-1.41-62.22,62.22h29.78s-.37-29.41,32.44-32.44v-29.78Z"/><path d="M305.43,263.59s1.41-29.19-32.44-32.44v-29.78s56.3-1.48,62.22,60.96l-29.78,1.26Z"/><path d="M240.54,263.59s.52,31.93,32.44,32.44v29.78s-57.7,1.7-62.22-62.22h29.78Z"/><path d="M335.21,262.33c-2.37,63.78-62.22,63.48-62.22,63.48v-29.78c32.07-1.19,32.44-32.44,32.44-32.44l29.78-1.26Z"/><circle cx="465.87" cy="153.22" r="48.78" fill="none" stroke="#ff1717" stroke-miterlimit="10" stroke-width="1.07"/><circle cx="465.87" cy="153.22" r="78" fill="none" stroke="#ff1717" stroke-miterlimit="10" stroke-width="1.07"/><path d="M465.87,75.22s-71.7-2.67-78,78h29.22s-4.48-41.15,48.78-48.78v-29.22Z"/><path d="M465.87,202s-43.78,1.22-48.78-48.78h-29.22s1.41,75.04,78,78v-29.22Z"/><path d="M543.87,153.22c1.95-79.64-78-78-78-78v29.22h48.78v97.56h-48.78v29.22s76.15-2.22,78-78Z"/><path d="M465.87,104.44s46.74.41,48.78,48.78c0,0,1.15,44.74-48.78,48.78v5.22h48.78v-102.78h-48.78Z"/><rect x="413.73" y="492.41" width="29.63" height="99.11"/><rect x="498.61" y="492.41" width="29.63" height="99.11"/><path d="M443.35,492.41s3.74-19.07,27.63-19.56,27.63,19.56,27.63,19.56h29.63s-.93-50.59-58.15-47.7c0,0-52.03-4.48-56.37,47.7h29.63Z"/><path d="M413.73,591.52s.48,39.51,57.26,40.55,57.26-38.96,57.26-38.96v-12.2h-29.63c-2.03,28.69-29.08,27.63-29.08,27.63-24.44-1.45-26.18-25.66-26.18-25.66"/><path d="M558.35,592.59s-5.78,15.33,6.44,15.56,10.22-11.11,10.22-11.11c0,0,1.33-6.58,11.78-5.51,0,0,16-.71,14,13.07,0,0,.67,13.78-10.22,14.22s-9.33,8-9.33,8c0,0-1.11,6.44,11.78,6.67s10.22,17.78,10.22,17.78c0,0,.89,13.78-15.11,13.33s-15.78-10-15.78-10c0,0,.44-10.89-10.44-8s-6,18.01-6,18.01c0,0,4.89,16.43,29.56,15.99s34.44-18.22,34.44-18.22c0,0,4.44-15.44-3.56-30.28,0,0-.44-1.95-6.44-4.39s1.33-5.56,1.33-5.56c0,0,10.22-9.56,7.11-21.11s-2.89-21.11-26.67-26-33.33,17.56-33.33,17.56Z"/></svg>