<?xml version="1.0" encoding="UTF-8"?><svg id="a" xmlns="http://www.w3.org/2000/svg" viewBox="0 0 1236.36 1081.03"><path d="M576.97,367.99c-37.33,2.67-179.56,69.33-179.56,69.33-130.67,69.33-129.63,109.78-138.67,117.33-8.24,6.89-66.67,152-94.22,222.22s28.44,70.22,28.44,70.22c35.56,8.89,135.11,9.78,135.11,9.78,278.22,11.56,448.89-11.56,448.89-11.56,113.78-23.11,117.33-111.11,117.33-111.11l48,1.78c-20.44,118.22-116.44,154.67-194.67,162.67s-314.67,12.44-438.22,8-145.82-17.12-145.82-17.12c-84.49-21.56-46.18-117.99-46.18-117.99,10.67-65.78,100.44-247.11,100.44-247.11,48-77.33,127.11-114.67,127.11-114.67,71.11-46.22,227.56-90.67,227.56-90.67l-5.41-53.78s-16-111.56,105.33-112.44l255.11-21.33s91.11.44,100,96.44l31.56,346.67s15.11,83.56-83.56,108.89l-2.22-32.89s75.11-17.33,49.78-102.22l-25.33-276.89-3.56-44.44s-.44-71.11-88.44-62.22-249.33,20.44-249.33,20.44c0,0-65.08,8-58.32,81.33l10.32,98.67-31.48,2.67Z"/><path d="M744.01,667.55s26.37,32,26.37,64.89c0,0,2.96,26.67,24.89,32.59,0,0-18.07,41.48-90.96,49.78,0,0-243.56,19.56-330.67,16,0,0-154.07-3.56-165.93-11.26,0,0-24.15-4.3-8.59-38.96s52.44-147.11,75.56-188l38.22,6.22,26.07,4.74s-18.96,56.14.59,108.36,62.81,72.97,62.81,72.97c0,0,49.78,32.59,123.85,5.93s94.81-74.67,94.81-74.67c0,0,13.63-24.89,17.78-38.52,0,0-11.22-8.74-20.65-25.63s27.02-16,27.02-16c0,0,12.44,24,34.22,30.67s23.85,8.89,64.59.89Z"/><path d="M594.38,499.4s-47.11-39.11-126.22-18.67-117.78,96-117.78,96c0,0-11.7,18.07-11.41,26.81l-64.3-10.96s19.26-59.85,110.81-114.96,195.11-79.56,195.11-79.56l-3.63-30.07,31.48-2.67,27.26,227.26s-.15,35.56,9.48,43.41l-27.02,16-20.04-108.15-3.76-44.44Z"/><path d="M598.14,543.85s-39.31-54.37-120.2-35.19c0,0-53.78,10.74-92.44,65.41s-21.78,119.11-21.78,119.11c0,0,11.56,33.33,26.22,45.78l35.11-38.22,140.44-117.33,32.65-39.56Z"/><path d="M617.75,649.66s-3.37,43.08-42.48,80.85-92.89,41.78-92.89,41.78c0,0-50.89,9.63-92.44-33.33s35.11-38.22,35.11-38.22c0,0-7.78,13.93,3.78,21.04s23.11-3.11,23.11-3.11l29.78-24.89,24.44,12.44s-4.89,11.11,3.56,16.44,14.22,3.11,14.22,3.11c0,0,6.67-4.89,12.89-8.89s29.33-24.89,29.33-24.89c0,0,5.78-8,.89-17.78s-17.78-4.89-17.78-4.89l-19.11,16-17.78-17.33,63.11-53.78,42.26,35.44Z"/><path d="M530.16,685.33s-21.56,16.89-24,20.89-24.44-12.44-24.44-12.44l30.67-25.78,17.78,17.33Z"/><path d="M575.49,614.22s6-6.67,1.56-18.22-19.09-6.29-19.09-6.29l22.65-40.15,17.54-5.7,8.24,2.81,18.89,103.56h-14l-35.78-36Z"/><path d="M802.31,746.88l92-12.67,46.36,1.72,1.49-5.35s1.48-3.26,8.89-1.78,12.15-10.67,12.15-10.67c0,0,1.19-17.19-3.26-30.22s5.04-60.15,5.04-60.15c0,0,19.85-52.74,20.44-71.41s4.44-63.7-1.19-87.41l-27.56-175.41-49.48,7.7,12.74,96s-2.37,12.44-8.89,1.19v-7.7l-5.04-53.04-11.85-86.52-58.37,2.07s2.96,52.15,5.33,58.37,4.74,40.3,4.74,40.3l5.04,43.85s-2.37,8.3-8,1.48l-1.78-18.07-4.74-52.74-8.59-82.37-2.67-17.19-64.3,8.59,7.11,62.52,13.04,106.07s-1.78,12.44-7.41.89c0,0-9.19-78.81-9.19-79.7s-7.41-63.7-7.41-63.7l-60.15,6.81,14.52,120.59,10.67,93.33,1.19,6.52s-.3,9.19-4.44,1.78-21.63-45.63-21.63-45.63c0,0-15.11-29.93-18.37-32.89s-43.85,21.93-43.85,21.93l24,65.78,28.15,68.74s14.81,37.04,31.7,50.96,44.44,45.93,44.44,45.93c0,0,21.33,32.3,22.81,59.26s16.3,22.22,16.3,22.22Z"/><path d="M634.9,433.99s-2.07-23.33,13.93-27.11,29.93,5.19,29.93,5.19l-43.85,21.93Z"/><path d="M696.82,268.36s1.33-27.26,25.33-29.93,34.81,23.11,34.81,23.11l-60.15,6.81Z"/><path d="M760.82,235.48s-3.56-27.26,26.44-33.04,37.85,24.44,37.85,24.44l-64.3,8.59Z"/><path d="M835.79,253.25s-1.19-25.93,27.48-25.26,30.89,23.19,30.89,23.19l-57.33,1.7-1.04.37Z"/><path d="M907.19,301.25s.07-21.93,20.07-26.37,29.41,18.67,29.41,18.67l-48.52,7.7h-.96Z"/></svg>