<?xml version="1.0" encoding="UTF-8"?>
<svg id="Layer_1" xmlns="http://www.w3.org/2000/svg" version="1.1" viewBox="0 0 800 800">
  <!-- Generator: Adobe Illustrator 29.4.0, SVG Export Plug-In . SVG Version: 2.1.0 Build 152)  -->
  <defs>
    <style>
      .st0 {
        fill: none;
        stroke: #6c0007;
        stroke-linecap: round;
        stroke-miterlimit: 133.33;
        stroke-width: 50px;
      }
    </style>
  </defs>
  <path class="st0" d="M400,66.67v533.33M400,733.33v-133.33M400,600l100,100M400,600l-100,100M500,100l-100,100-100-100"/>
  <path class="st0" d="M111.33,233.35l115.47,66.67M226.8,300.01l346.41,200M226.8,300.01l-36.6-136.6M226.8,300.01l-136.6,36.6M573.21,500.01l115.47,66.67M573.21,500.01l136.6-36.6M573.21,500.01l36.6,136.6"/>
  <path class="st0" d="M688.67,233.35l-115.47,66.67M573.2,300.01l-346.41,200M573.2,300.01l36.6-136.6M573.2,300.01l136.6,36.6M226.79,500.01l-115.47,66.67M226.79,500.01l-136.6-36.6M226.79,500.01l-36.6,136.6"/>
</svg>