<?xml version="1.0" encoding="UTF-8"?><svg id="a" xmlns="http://www.w3.org/2000/svg" xmlns:xlink="http://www.w3.org/1999/xlink" viewBox="0 0 1845.51 789.53"><defs><radialGradient id="b" cx="608.1" cy="288.35" fx="608.1" fy="288.35" r="500.54" gradientTransform="translate(423.43 912.65) rotate(-92.08) scale(1 1.82)" gradientUnits="userSpaceOnUse"><stop offset="0" stop-color="#600"/><stop offset=".15" stop-color="#770005"/><stop offset=".42" stop-color="#a30014"/><stop offset=".73" stop-color="#690009"/><stop offset="1" stop-color="#340000"/></radialGradient><radialGradient id="c" cx="608.1" cy="288.35" fx="608.1" fy="288.35" r="500.54" gradientTransform="translate(423.43 912.65) rotate(-92.08) scale(1 1.82)" gradientUnits="userSpaceOnUse"><stop offset="0" stop-color="#600"/><stop offset=".15" stop-color="#770005"/><stop offset=".42" stop-color="#a30014"/><stop offset=".73" stop-color="#690009"/><stop offset="1" stop-color="#340000"/></radialGradient><radialGradient id="d" cx="608.1" cy="288.35" fx="608.1" fy="288.35" r="500.54" gradientTransform="translate(423.43 912.65) rotate(-92.08) scale(1 1.82)" gradientUnits="userSpaceOnUse"><stop offset="0" stop-color="#600"/><stop offset=".15" stop-color="#770005"/><stop offset=".42" stop-color="#a30014"/><stop offset=".73" stop-color="#690009"/><stop offset="1" stop-color="#340000"/></radialGradient><radialGradient id="e" cx="608.1" cy="288.35" fx="608.1" fy="288.35" r="500.54" gradientTransform="translate(423.43 912.65) rotate(-92.08) scale(1 1.82)" gradientUnits="userSpaceOnUse"><stop offset="0" stop-color="#600"/><stop offset=".15" stop-color="#770005"/><stop offset=".42" stop-color="#a30014"/><stop offset=".73" stop-color="#690009"/><stop offset="1" stop-color="#340000"/></radialGradient><radialGradient id="f" cx="608.1" cy="288.35" fx="608.1" fy="288.35" r="500.54" gradientTransform="translate(423.43 912.65) rotate(-92.08) scale(1 1.82)" gradientUnits="userSpaceOnUse"><stop offset="0" stop-color="#600"/><stop offset=".15" stop-color="#770005"/><stop offset=".42" stop-color="#a30014"/><stop offset=".73" stop-color="#690009"/><stop offset="1" stop-color="#340000"/></radialGradient><radialGradient id="g" cx="608.1" cy="288.35" fx="608.1" fy="288.35" r="500.54" gradientTransform="translate(423.43 912.65) rotate(-92.08) scale(1 1.82)" gradientUnits="userSpaceOnUse"><stop offset="0" stop-color="#600"/><stop offset=".15" stop-color="#770005"/><stop offset=".42" stop-color="#a30014"/><stop offset=".73" stop-color="#690009"/><stop offset="1" stop-color="#340000"/></radialGradient><radialGradient id="h" cx="608.1" cy="288.35" fx="608.1" fy="288.35" r="500.54" gradientTransform="translate(423.43 912.65) rotate(-92.08) scale(1 1.82)" gradientUnits="userSpaceOnUse"><stop offset="0" stop-color="#600"/><stop offset=".15" stop-color="#770005"/><stop offset=".42" stop-color="#a30014"/><stop offset=".73" stop-color="#690009"/><stop offset="1" stop-color="#340000"/></radialGradient><radialGradient id="i" cx="627.71" cy="430.94" fx="627.71" fy="430.94" r="663.48" gradientTransform="translate(1551.41 -255.35) rotate(-180) scale(1 -1)" gradientUnits="userSpaceOnUse"><stop offset="0" stop-color="#600"/><stop offset=".08" stop-color="#770005"/><stop offset=".22" stop-color="#a30014"/><stop offset=".64" stop-color="#690009"/><stop offset="1" stop-color="#340000"/></radialGradient><linearGradient id="j" x1="424.8" y1="532.95" x2="1549.5" y2="532.95" gradientTransform="translate(1551.41 -255.35) rotate(-180) scale(1 -1)" gradientUnits="userSpaceOnUse"><stop offset="0" stop-color="#440014"/><stop offset="1" stop-color="#230000"/><stop offset="1" stop-color="#440014"/></linearGradient><linearGradient id="k" x1="-212.81" y1="492.46" x2="508.95" y2="492.46" gradientTransform="translate(1551.41 -255.35) rotate(-180) scale(1 -1)" gradientUnits="userSpaceOnUse"><stop offset="0" stop-color="#230000"/><stop offset="1" stop-color="#440014"/><stop offset="1" stop-color="#440014"/></linearGradient></defs><path d="M90.3,666.5l-7.06-23.28-46.58-134.12L0,406.08c17.28.26,32.66.38,46.12.38,8.26,0,21.22-.13,38.88-.38,2.93,11.33,5.22,19.92,6.88,25.77,2.3,7.64,6.63,21.45,13,41.43l28.1,90.3c2.8,9.42,6.25,21.7,10.32,36.85l8.77-21.95,66.52-145.86c1.14-2.67,2.45-5.73,3.91-9.16s3.78-9.23,6.96-17.37c18.45.26,33.28.38,44.48.38,7,0,20.87-.13,41.61-.38-12.97,24.17-27.65,52.4-44.05,84.71l-65.78,130.49c-6.36,12.72-13.47,27.79-21.36,45.21-21.37-.25-36.64-.38-45.79-.38-8.52,0-24.61.13-48.27.38h0Z" fill="url(#b)"/><path d="M316.12,666.5c7.33-102.13,11-180.73,11-235.81l-.19-24.61c22.27.26,37.17.38,44.68.38,3.43,0,17.12-.13,41.05-.38-2.3,28.62-4.15,55.71-5.55,81.27-1.79,35.61-3.07,68.91-3.83,99.87-.77,30.97-1.15,57.4-1.15,79.27l-39.09-.38c-7.63,0-23.26.13-46.91.38h-.01Z" fill="url(#c)"/><path d="M506.91,666.5c6.32-61.81,10.11-129.86,11.37-204.14l-81.2,2.1.95-21.18c.51-11.32.89-23.72,1.14-37.2,36.11.26,78.19.38,126.26.38l47.11-.19h45.78l24.79-.19-1.15,18.69c-.51,10.02-.86,18.31-1.05,24.86-.19,6.55-.29,11.49-.29,14.83-27.2-1.4-49.62-2.1-67.29-2.1h-13.34c-1.92,22.47-3.39,43.23-4.41,62.27-1.41,27.29-2.5,53.79-3.27,79.5s-1.15,46.5-1.15,62.36c-20.85-.25-34.32-.38-40.42-.38-5.47,0-20.08.13-43.85.38h.02,0Z" fill="url(#d)"/><path d="M662.77,666.5l15.84-27.47,98.68-185.82,10.5-20.79c3.05-6.11,7.32-14.88,12.79-26.33,22.38.26,38.72.38,49.02.38,17.93,0,34.53-.13,49.79-.38l27.84,79.56,56.63,153.01,11.06,27.85c-22.03-.25-35.4-.38-40.11-.38-10.7,0-26.42.13-47.17.38-5.59-20.99-13.65-45.66-24.19-74.02h-96.04c-11.06,22.39-22.49,47.06-34.31,74.02-23.68-.25-38.2-.38-43.54-.38-9.68,0-25.28.13-46.79.38h0ZM810.48,536.96h59.26c-14.73-44.82-22.79-69.51-24.19-74.09-8.39,18.67-15.5,33.96-21.35,45.9l-13.72,28.19h0Z" fill="url(#e)"/><path d="M1240.46,602.96c-1.53,7.48-3.37,17.91-5.53,31.29s-3.62,23.74-4.39,31.1c-27.22,4.07-51.51,6.1-72.88,6.1s-39.78-2.58-57.52-7.73c-17.74-5.15-34.02-13.61-48.84-25.37s-25.41-25.59-31.76-41.49c-6.36-15.9-9.54-33.7-9.54-53.42,0-23.02,4.29-43.72,12.88-62.1s20.92-33.7,37.01-45.98c16.09-12.27,33.74-21.05,52.94-26.33s39.04-7.92,59.52-7.92c18.82,0,42.1,2.42,69.83,7.25l.38,16.03c.25,7,.64,14.69,1.15,23.08l1.33,21.75c-14.88-3.56-26.93-5.98-36.15-7.25s-17.78-1.91-25.66-1.91c-17.17,0-32.62,3.43-46.36,10.3s-24.55,16.85-32.43,29.95c-7.89,13.1-11.83,27.6-11.83,43.5,0,14.5,3.31,26.93,9.92,37.3s15.55,18.38,26.8,24.04c11.26,5.66,25.15,8.49,41.69,8.49,9.03,0,18.86-.73,29.48-2.19s23.94-4.29,39.97-8.49h0Z" fill="url(#f)"/><path d="M1242.75,666.5l15.84-27.47,98.68-185.82,10.5-20.79c3.05-6.11,7.31-14.88,12.79-26.33,22.38.26,38.72.38,49.02.38,17.93,0,34.53-.13,49.79-.38l27.84,79.56,56.63,153.01,11.06,27.85c-22.03-.25-35.4-.38-40.11-.38-10.7,0-26.42.13-47.17.38-5.59-20.99-13.65-45.66-24.19-74.02h-96.04c-11.06,22.39-22.49,47.06-34.31,74.02-23.68-.25-38.2-.38-43.54-.38-9.68,0-25.28.13-46.79.38h0ZM1390.46,536.96h59.26c-14.73-44.82-22.79-69.51-24.19-74.09-8.39,18.67-15.5,33.96-21.35,45.9l-13.72,28.19h0Z" fill="url(#g)"/><path d="M1594.55,666.5c2.42-22.38,4.34-42.54,5.74-60.48,1.4-17.93,2.61-38.73,3.63-62.39,1.02-23.66,1.79-48.62,2.3-74.88s.77-47.15.77-62.67c15.89.38,28.74.57,38.53.57s22.57-.29,37.2-.86,28.87-.86,42.73-.86c16.28,0,30.78.64,43.49,1.91,9.54.89,18.21,2.74,26.04,5.53,7.82,2.8,14.4,6.2,19.74,10.21,5.34,4.01,9.79,8.49,13.35,13.45,3.56,4.96,6.33,10.78,8.3,17.46,1.97,6.68,2.96,13.83,2.96,21.46,0,8.52-1.08,16.5-3.24,23.94s-5.57,14.44-10.21,20.99c-4.64,6.55-10.49,12.21-17.55,16.98s-16.95,9.63-29.67,14.59l9.92,24.23c2.8,6.74,5.79,13.61,8.97,20.6l25.57,55.9c1.14,2.42,3.18,7.19,6.1,14.31-20.97-.25-35.08-.38-42.32-.38-9.15,0-24.15.13-45,.38-2.04-6.61-5.73-18.89-11.08-36.82-2.16-7.5-4.01-13.29-5.54-17.36-3.06-9.03-7.58-21.68-13.56-37.97l-19.67-53.99c6.87,1.27,13.61,1.91,20.22,1.91,9.28,0,17.71-1.4,25.28-4.2,7.57-2.8,13.29-7.12,17.17-12.97s5.82-12.02,5.82-18.51c0-5.47-1.46-10.27-4.39-14.4s-7.54-7.22-13.83-9.25c-6.3-2.03-16-3.05-29.09-3.05-4.45,0-9.06.1-13.83.29-4.77.19-10.33.35-16.69.48-1.63,26.07-3.07,57.87-4.33,95.39-1.25,37.52-2.07,74.34-2.44,110.46-21.27-.25-35.08-.38-41.45-.38-7.39,0-20.69.13-39.92.38h-.02Z" fill="url(#h)"/><polyline points="0 406.08 85.01 406.08 143.31 600.43 140.76 601.11 83.25 407.81 0 408.11" fill="#ffaeae"/><polygon points="229.46 406.08 315.55 406.08 184.37 666.5 181.77 666.5 313.44 407.21 228.86 407.21 229.46 406.08" fill="#ffaeae"/><polygon points="326.93 406.08 412.66 406.08 402.13 666.5 400.45 666.5 411.13 407.48 326.93 407.14 326.93 406.08" fill="#ffaeae"/><polygon points="439.18 406.08 683.11 406.08 682.26 418.61 681.81 429.41 681.14 442.79 680.91 451.9 680.64 464.46 678.92 464.46 679.3 451.86 679.67 442.72 680.65 429.22 681.32 418.42 681.85 407.1 439.18 407.03 439.18 406.08" fill="#ffaeae"/><polygon points="600.01 462.36 598.81 479.49 596.56 502.89 594.08 561.6 592.96 587.24 592.06 608.83 591.39 638.08 591.17 666.5 589.59 666.5 589.81 637.85 590.94 608.61 591.84 587.24 592.73 561.6 593.78 534.15 595.43 502.66 599.18 462.36 600.01 462.36" fill="#ffaeae"/><polygon points="810.48 536.95 869.74 536.95 869.74 538.22 810.81 537.99 810.48 537.68 810.48 536.95" fill="#ffaeae"/><polygon points="800.59 406.08 899.4 406.08 899.4 408.23 799.87 408.23 800.59 406.08" fill="#ffaeae"/><polygon points="994.92 666.5 899.4 406.08 896.74 406.08 993.46 666.5 994.92 666.5" fill="#ffaeae"/><polygon points="1242.18 408.37 1215.85 404.18 1192.61 401.78 1166.67 400.88 1137.73 403.28 1107.58 410.18 1081.19 421.42 1062.45 433.27 1081.94 422.02 1108.03 411.23 1137.88 404.63 1166.67 401.93 1192.91 403.13 1216.15 405.53 1242.18 409.88 1242.18 408.37" fill="#ffaeae" stroke="#ffaeae" stroke-miterlimit="10" stroke-width=".5"/><polygon points="1240.46 602.96 1222.6 607.52 1198.01 611.87 1181.66 613.52 1162.92 613.52 1151.67 612.32 1142.97 610.37 1132.03 606.47 1126.93 604.07 1119.13 599.12 1111.78 592.98 1105.63 586.08 1100.99 579.03 1097.39 571.23 1095.29 564.33 1093.19 554.59 1092.44 545.74 1092.44 555.04 1094.09 565.38 1095.74 570.93 1099.94 580.53 1104.28 586.98 1111.03 594.18 1118.68 600.47 1126.78 605.57 1132.03 607.82 1142.82 611.57 1151.37 613.52 1162.92 614.72 1182.11 614.72 1198.46 613.07 1223.05 608.57 1240.46 602.96" fill="#ffaeae" stroke="#ffaeae" stroke-miterlimit="10" stroke-width=".5"/><polygon points="1230.54 665.35 1240.46 602.96 1229.43 665.35 1230.54 665.35" fill="#ffaeae"/><polygon points="1380.56 406.08 1479.38 406.08 1480.68 408.98 1379.01 408.98 1380.56 406.08" fill="#ffaeae"/><polygon points="1242.75 666.5 1380.56 406.08 1383.66 406.08 1245.55 666.5 1242.75 666.5" fill="#ffaeae"/><rect x="1390.46" y="536.95" width="59.26" height="2.04" fill="#ffaeae"/><polygon points="1606.99 406.08 1747.01 406.08 1764.11 406.08 1778.8 408.08 1792.6 411.38 1806.1 417.07 1814.71 422.58 1805.35 418.27 1792.15 412.43 1776.7 408.68 1762.76 407.33 1606.99 407.33 1606.99 406.08" fill="#ffaeae" stroke="#ffaeae" stroke-miterlimit="10" stroke-width=".5"/><path d="M1759.83,494.08l-3.6,9.15-7.8,9.15s-11.4,6.45-11.85,6.45-17.1,3.3-17.1,3.3c0,0-13.8.15-14.25,0s-13.21-1.76-13.21-1.76l12.61,3.56h15l17.55-3.6,12.45-7.2,7.65-9.45,2.55-9.6h0Z" fill="#ffaeae" stroke="#ffaeae" stroke-miterlimit="10" stroke-width=".5"/><rect x="248.06" y="733.64" width="309.41" height="5.1" rx="1.26" ry="1.26"/><rect x="1301.25" y="733.79" width="309.41" height="5.1" rx="1.26" ry="1.26"/><path d="M1845.51,312.36c-48.29-51.88-120.87-62.08-120.87-62.08,23.99-19.19,39.59-56.38,39.59-56.38-514.66-46.79-771.39,133.16-713.81,95.97,57.59-37.19,155.96-69.58,155.96-69.58,151.16-43.19,218.34-92.38,218.34-92.38-449.88-221.35-735.1,56.68-735.1,56.68,131.36,40.49,436.98,23.99,436.98,23.99-184.75,37.19-301.12,18-610.64,2.4C206.45,195.38,1.9,350.74,1.9,350.74c166.95-212.34,602.84-188.65,602.84-188.65C705.51,141.39,788.29,12.73,1033.92,1.03c245.63-11.69,648.72,152.06,648.72,152.06h150.26c-49.48,46.79,12.6,159.26,12.6,159.26h.01Z" fill="url(#i)"/><polyline points="1126.6 208.58 1100.22 210.47 1077.12 211.37 1045.18 212.57 999.29 212.87 953.41 213.02 922.36 211.97 889.82 211.07 859.08 209.57 833.44 208.07 822.19 207.02 804.95 205.97 788.3 204.02 770.91 201.77 748.71 198.77 726.67 194.72 707.47 190.52 689.61 184.58 708.17 189.66 726.63 193.73 749.18 197.74 771.2 200.89 788.16 202.92 805.43 204.7 833.42 207.03 859.09 208.68 889.97 210.22 922.37 211.17 953.41 211.87 999.44 211.87 1045.18 211.3 1077.13 210.51 1100.37 209.73 1126.6 208.58" fill="#ffaeae" stroke="#ffaeae" stroke-miterlimit="10"/><path d="M689.62,184.58h0c307.94-291.14,735.1-67.03,735.1-67.03v10.35c-453.41-220.67-735.1,56.68-735.1,56.68Z" fill="#510202"/><path d="M1126.61,208.57c-132.64,33.07-456.8,5.02-456.8,5.02,0,0-36.05-3.67-91.08-6.59-55.27-2.93-129.7-5.1-211.44,4.05C152.24,235.12,1.91,350.74,1.91,350.74c92.58-53.59,164.56-91.21,256.21-113.88,99.09-24.51,222.39-30.6,406.33-17.54,360.63,25.6,462.15-10.74,462.15-10.74h.01Z" fill="url(#j)"/><path d="M1042.46,294.97c311.4-158.66,721.76-108.05,721.76-108.05v6.97c-466.75-40.19-721.76,101.07-721.76,101.07h0Z" fill="url(#k)"/><path d="M1682.76,153.05l-18.78-7-16.05-6.11-19.83-7.54-13.8-4.91-14.32-5.02-12.3-4.24-23.32-8.21-12.07-4.12-17.77-6.19-11.55-3.86-17.85-5.81-8.55-2.66-14.25-4.46-9.52-2.77-15.6-4.72-13.01-3.86-16.16-4.87-14.7-4.27-16.61-4.8-12.6-3.37-20.81-5.7-13.12-3.3-17.4-4.42-17.06-4.12-4.57-1.05-12.11-2.74-13.61-3.15-10.8-2.1-9.48-2.1-14.13-2.96-9-1.76-14.02-2.59-8.4-1.54-10.5-1.76-5.74-1.09-15.03-2.25-7.35-1.01-16.8-2.44-4.31-.6-19.38-2.21-9.45-.97-15.22-1.35-7.31-.49-10.57-.75-11.17-.49-18.74-.56-8.89.04-18.15.34-15.67.67-14.43.97-14.13,1.2-14.21,1.65-8.36,1.09-6.22.86-7.91,1.31-10.42,1.72-9.15,1.76-11.88,2.32-9,2.25-16.16,3.9-14.28,4.01-10.12,3.15-13.23,4.39-4.39,1.54-8.92,3.26-15.63,6.04-7.84,3.3-6.15,2.77-5.55,2.51-9.6,4.42-18.15,8.92-10.12,5.36-1.2.71-4.24,2.25-8.85,4.91-9.11,5.25-10.61,6.37-6.45,3.94-4.61,2.74-5.1,3.15-5.06,3.11-6.26,3.86-5,2.96-15.69,9.9-9.84,6.07-10.35,6.19-8.55,4.78-7.93,4.39-4.16,2.19-4.33,2.25-4.5,2.02-4.95,2.42-4.39,1.86-3.88,1.74-4.44,1.52-3.43,1.24-4.27,1.52-4.61,1.46-7.82,1.97-3.66,1.01-1.35.22-7.14-.06-10.63-.39-12.6-.11-18-.11-12.65.22-15.58.34-17.15.62-14.34.73-10.29.62-12.65.73-11.64.96-11.7,1.01-11.25,1.12-12.15,1.12-8.94.96-10.52,1.35-9.67,1.18-10.91,1.41-11.55,1.87-9.22,1.35-7.54,1.24-7.54,1.35-7.65,1.24-5.96,1.12-5.62,1.01-7.5,1.35-6.75,1.42-10.72,2.25-8.62,2.02-6.3,1.42-6.17,1.5-5.74,1.46-6.75,1.8-8.32,2.14-12.03,3.26-6.69,1.72-5.55,1.65-5.86,1.29-3.45,1.11-.99.33-1.88.6-1.42.45-2.03.63-2.12.7-1.43.47-4.12,1.41-3.9,1.3-2.63.84-1.15.4-1.23.44-2.73.96-1.3.47-3.2,1.15-2.17.8-3.04,1.11-1.47.56-2.05.77-2.12.81-1.08.4-1.16.5-1.79.66-2.2.87-1.38.54-1.43.56-1.89.77-2.25.9-2.48,1.01-2.22.92-2.01.86-1.26.53-1.86.8-1.16.48-.98.42-1.49.66-.52.23-2.36,1.04-2.67,1.21-1.55.73-1.72.76-2.98,1.36-2.02.96-2.26,1.11-1.97.89-1.8.87-1.78.89-4.19,2.03-2.03,1.04-3.11,1.57-4.11,2.14-2.43,1.25-3.2,1.78-5,2.71-4.23,2.33-6.44,3.77-3.83,2.27-4.81,2.84-5.08,3.2-3.18,2.07-2.75,1.76-6.65,4.45-5.25,3.6-7.33,5.4-8.36,6.39-7.73,6.2-3.09,2.63-4.37,3.94-8.47,7.72-7.35,7.2-12.37,12.75-9.52,10.8-5.44,5.96,1.14-1.45,4.42-5.42,5.5-6.43,5.52-6.11,4.7-4.97,4.54-4.61,7.33-7.08,7.24-6.6,6.9-5.97,10.84-8.79,8.36-6.35,7.38-5.33,5.3-3.68,6.64-4.44,2.69-1.75,3.16-2.02,4.34-2.71,3.81-2.33,3.4-2.03,5.28-3.08,5.34-3.02,5.83-3.2,9.29-4.9,6.58-3.33,5.06-2.48,4.41-2.12,4.8-2.25,6.38-2.91,5.41-2.39,3.87-1.67,5.21-2.2,4.71-1.94,6.81-2.73,5.72-2.23,6.22-2.35,9.32-3.39,6.72-2.35,8.99-3.03,1.97-.63,11.9-3.8,5.73-1.75,5.42-1.61,6.56-1.89,12.04-3.33,8.51-2.24,6.36-1.61,6.2-1.52,5.96-1.42,6.47-1.5,8.77-1.95,10.46-2.22,6.9-1.4,7.5-1.47,5.58-1.05,6.02-1.1,7.69-1.36,7.35-1.24,7.59-1.23,9.2-1.42,11.68-1.7,10.91-1.48,9.73-1.23,10.43-1.23,9.07-1,12.14-1.23,11.27-1.04,11.52-.96,11.63-.87,12.68-.83,10.28-.59,14.4-.69,17.17-.62,15.67-.37,12.52-.16h18l12.75.18,10.68.58h6.97l4.88-1.09,7.79-2.09,4.78-1.49,4.21-1.43,3.35-1.22,4.3-1.67,3.87-1.6,4.35-1.89,5.07-2.33,4.53-2.19,4.4-2.22,3.97-2.07,7.97-4.33,8.63-4.92,10.28-6.09,9.95-6.07,15.95-9.89,32.15-19.75,10.69-6.31,9.13-5.24,14.25-7.87,10.11-5.33,18.19-9.03,21.34-9.64,10.24-4.26.19-.07,13.02-5.07,13.28-4.78,13.27-4.39,10.07-3.08,14.29-4.01,25.22-6.1,21.04-4.17,18.46-3.02,14.52-1.97,14.17-1.6,14.08-1.28,14.5-1.02,15.75-.75,27-.26,18.79.52,11.13.54,17.9,1.21,24.65,2.28,20.78,2.42,25.34,3.5,18.29,2.87,17.35,2.97,18.66,3.44,20.84,4.12,23.72,5.03,27.92,6.35,19.46,4.69,15.29,3.82,16.9,4.36,24.03,6.44,54.15,15.47,19.79,5.96,16.99,5.25,21.39,6.77,23.21,7.54,25.2,8.42,23.18,7.96,14.97,5.25c11.23,2.75,94.71,35.41,94.71,35.41l.11-.04h0Z" fill="#ffaeae" stroke="#ffaeae" stroke-miterlimit="10"/><polygon points="1415.51 134.81 1404.15 141.67 1388.85 150.45 1373.56 158.43 1360.17 164.84 1343.19 172.71 1327.78 179.46 1310.8 185.87 1296.29 191.95 1277.28 198.47 1266.37 202.07 1257.82 205.22 1247.59 208.48 1233.59 213.54 1221.05 216.92 1208.56 220.63 1196.64 224.45 1180.33 230.3 1159.41 238.4 1143.44 245.03 1127.47 251.78 1114.54 257.52 1097.78 265.28 1084.96 271.58 1074.39 276.86 1064.38 282.37 1042.46 294.96 1063.85 281.67 1073.79 276.11 1084.01 270.74 1096.88 264.35 1113.92 256.42 1126.6 250.84 1143.23 243.86 1159 237.55 1196.36 223.71 1207.97 219.82 1220.98 216.01 1232.96 212.36 1247.34 207.8 1257.47 204.47 1277.09 197.71 1296.02 190.77 1310.3 185.25 1326.91 178.5 1342.79 171.67 1359.75 163.92 1372.65 157.68 1388.64 149.46 1403.34 141.31 1415.22 134.18 1424.72 127.9 1415.51 134.81" fill="#ffaeae" stroke="#ffaeae" stroke-miterlimit="10" stroke-width=".5"/><g isolation="isolate"><g isolation="isolate"><g isolation="isolate"><path d="M569.51,766.78l3.69-6.4,22.98-43.28,2.45-4.84c.71-1.42,1.7-3.47,2.98-6.13,5.21.06,9.02.09,11.42.09,4.18,0,8.04-.03,11.6-.09l6.48,18.53,13.19,35.64,2.58,6.49c-5.13-.06-8.24-.09-9.34-.09-2.49,0-6.15.03-10.99.09-1.3-4.89-3.18-10.63-5.63-17.24h-22.37c-2.57,5.21-5.24,10.96-7.99,17.24-5.52-.06-8.9-.09-10.14-.09-2.25,0-5.89.03-10.9.09ZM603.91,736.61h13.8c-3.43-10.44-5.31-16.19-5.63-17.25-1.95,4.35-3.61,7.91-4.97,10.69l-3.2,6.57Z"/><path d="M654.21,706.13c4.62.06,7.88.09,9.77.09,2.37,0,5.52-.03,9.46-.09l-1.32,18.88c-.26,3.55-.46,6.89-.6,10-.13,3.11-.2,5.26-.2,6.44,0,2.25.16,4.13.49,5.64.33,1.51.92,2.79,1.78,3.84.86,1.05,2.05,1.84,3.57,2.38,1.52.53,3.11.8,4.77.8,1.42,0,2.75-.19,4-.58.98-.32,1.85-.76,2.62-1.32.68-.53,1.27-1.15,1.78-1.85.62-.85,1.17-1.9,1.64-3.17.47-1.2.83-2.75,1.07-4.66.27-1.94.62-6.35,1.07-13.23.38-5.86.68-11.22.89-16.08.18-4.73.34-7.09.49-7.09h19.59l-2.16,31.55c-.03.59-.04,1.08-.04,1.47-.12,6.16-.5,10.51-1.13,13.04-.64,2.53-1.7,4.73-3.18,6.6s-3.65,3.55-6.49,5.04c-2.84,1.5-6.07,2.55-9.69,3.18-3.62.62-7.27.93-10.98.93-3.32,0-6.52-.24-9.6-.71-2.85-.47-5.41-1.16-7.69-2.07-2.28-.9-4.27-1.96-5.96-3.18-1.54-1.12-2.73-2.27-3.56-3.44-.83-1.17-1.48-2.57-1.96-4.2-.53-1.84-.8-3.81-.8-5.91,0-.71.03-1.78.09-3.22s.19-3.5.4-6.2l.58-7.11c.15-1.87.31-4.61.49-8.22l.8-17.55Z"/><path d="M735.78,766.78c1.47-14.4,2.35-30.24,2.65-47.54l-18.91.49.22-4.93c.12-2.64.21-5.52.27-8.67,8.41.06,18.21.09,29.41.09l10.97-.04h10.66l5.77-.05-.27,4.35c-.12,2.33-.2,4.26-.24,5.79s-.07,2.68-.07,3.46c-6.33-.33-11.56-.49-15.67-.49h-3.11c-.45,5.23-.79,10.07-1.03,14.5-.33,6.36-.58,12.53-.76,18.52-.18,5.99-.27,10.83-.27,14.53-4.85-.06-7.99-.09-9.41-.09-1.27,0-4.68.03-10.21.09Z"/><path d="M816.74,704.97c4.74,0,9.3.64,13.69,1.91,4.38,1.27,8.22,3.31,11.51,6.11,3.29,2.8,5.75,6.02,7.38,9.66,1.63,3.64,2.44,7.84,2.44,12.58,0,4.98-.9,9.55-2.69,13.71-1.79,4.16-4.38,7.69-7.75,10.6s-7.41,5.03-12.09,6.38c-4.68,1.35-9.55,2.02-14.62,2.02s-9.81-.66-14.4-1.98c-4.59-1.32-8.58-3.45-11.97-6.4-3.39-2.95-5.8-6.23-7.22-9.84-1.42-3.61-2.13-7.63-2.13-12.04,0-6.49,1.5-12.18,4.51-17.08,3.01-4.9,7.46-8.73,13.38-11.49,5.91-2.75,12.57-4.13,19.97-4.13ZM815.94,718.35c-3.41,0-6.49.84-9.24,2.51s-4.87,4-6.35,6.98c-1.48,2.98-2.22,6.17-2.22,9.58,0,3.14.67,6.01,2.02,8.62,1.35,2.61,3.4,4.64,6.15,6.11,2.75,1.47,5.67,2.2,8.75,2.2,3.29,0,6.3-.82,9.04-2.47,2.74-1.64,4.83-3.96,6.27-6.93,1.44-2.98,2.15-6.09,2.15-9.35s-.67-6.09-2-8.78-3.29-4.76-5.87-6.24c-2.58-1.48-5.48-2.22-8.71-2.22Z"/><path d="M881.08,765.85c-.39-6.31-.83-11.36-1.33-15.15,3.32,1.48,6.28,2.51,8.88,3.09,2.6.58,4.87.87,6.83.87,2.58,0,4.64-.38,6.17-1.13,1.53-.75,2.29-1.87,2.29-3.35,0-.5-.07-.98-.22-1.44-.15-.46-.43-.98-.85-1.55-.42-.58-1.01-1.21-1.78-1.89l-8.37-7.29c-1.96-1.66-3.32-2.86-4.1-3.6-1.57-1.51-2.8-2.92-3.67-4.22-.88-1.3-1.51-2.63-1.91-3.98s-.6-2.78-.6-4.29c0-1.81.32-3.58.96-5.31.64-1.73,1.59-3.36,2.87-4.87,1.27-1.51,2.96-2.81,5.07-3.91,2.1-1.1,4.35-1.84,6.75-2.24,2.4-.4,4.87-.6,7.42-.6,5.01,0,10.46.58,16.35,1.73.09,2.04.19,3.92.31,5.62.12,1.7.4,4.69.84,8.95-2.73-1.1-5.21-1.86-7.46-2.29-2.25-.43-4.19-.64-5.82-.64-2.31,0-4.23.43-5.75,1.29-1.53.86-2.29,1.93-2.29,3.2,0,.59.12,1.17.36,1.73.24.56.68,1.22,1.33,1.98.65.75,1.51,1.58,2.58,2.49s2.74,2.24,5.02,4.02l3.2,2.53c.95.77,1.97,1.7,3.07,2.8,1.1,1.1,2.04,2.18,2.84,3.24s1.41,2.04,1.84,2.93c.43.89.75,1.79.96,2.69.21.9.31,1.87.31,2.91,0,2.67-.64,5.21-1.91,7.62-1.27,2.42-3.08,4.4-5.42,5.95-2.34,1.56-4.91,2.64-7.71,3.27-2.8.62-5.75.93-8.86.93-4.8,0-10.86-.7-18.17-2.09Z"/><path d="M931.87,766.78c.74-7.64,1.29-14.04,1.63-19.2s.68-12,1.02-20.55c.34-8.55.51-14.21.51-17l-.04-3.91c6.99.06,15.45.09,25.37.09,9.15,0,17.22-.03,24.21-.09l-.09,1.46c-.03.35-.1,1.64-.22,3.85l-.27,4.83c-.06,1.03-.09,2.08-.09,3.14-5.72-.24-10.52-.36-14.4-.36-4.27,0-7.15,0-8.64.02-1.5.01-3.83.08-7,.2l-.54,10.22c3.5.09,7.57.13,12.22.13,1.66,0,6.07-.1,13.24-.31-.3,3.79-.58,8.31-.84,13.55-5.12-.06-9.06-.09-11.81-.09-4.09,0-8.66.1-13.72.31l-.53,10.8h5.11c1.51,0,4.63-.04,9.37-.13l9.19-.22c1.36-.03,3.64-.15,6.84-.36-.36,4.38-.65,8.92-.89,13.6-7.23-.06-15.15-.09-23.77-.09l-19.55.04-6.31.04Z"/><path d="M991.81,766.78c.56-5.21,1.01-9.91,1.34-14.09.33-4.18.61-9.02.85-14.53s.42-11.32.54-17.44c.12-6.12.18-10.98.18-14.6,3.7.09,6.69.13,8.97.13s5.26-.07,8.66-.2c3.41-.13,6.72-.2,9.95-.2,3.79,0,7.17.15,10.13.44,2.22.21,4.24.64,6.06,1.29,1.82.65,3.35,1.44,4.6,2.38,1.24.93,2.28,1.98,3.11,3.13s1.47,2.51,1.93,4.07c.46,1.56.69,3.22.69,5,0,1.99-.25,3.84-.75,5.58-.5,1.73-1.3,3.36-2.38,4.89-1.08,1.53-2.44,2.84-4.09,3.96-1.64,1.11-3.95,2.24-6.91,3.4l2.31,5.64c.65,1.57,1.35,3.17,2.09,4.8l5.95,13.02c.27.56.74,1.67,1.42,3.33-4.88-.06-8.17-.09-9.86-.09-2.13,0-5.62.03-10.48.09-.47-1.54-1.33-4.4-2.58-8.58-.5-1.75-.93-3.09-1.29-4.04-.71-2.1-1.77-5.05-3.16-8.84l-4.58-12.58c1.6.3,3.17.44,4.71.44,2.16,0,4.12-.33,5.89-.98,1.76-.65,3.1-1.66,4-3.02.9-1.36,1.36-2.8,1.36-4.31,0-1.27-.34-2.39-1.02-3.36-.68-.96-1.75-1.68-3.22-2.15-1.47-.47-3.73-.71-6.78-.71-1.04,0-2.11.02-3.22.07-1.11.04-2.41.08-3.89.11-.38,6.07-.72,13.48-1.01,22.22-.29,8.74-.48,17.31-.57,25.73-4.95-.06-8.17-.09-9.65-.09-1.72,0-4.82.03-9.3.09Z"/><path d="M1071.8,766.78l-1.64-5.42-10.85-31.24-8.54-23.99c4.03.06,7.61.09,10.74.09,1.92,0,4.94-.03,9.06-.09.68,2.64,1.22,4.64,1.6,6,.53,1.78,1.54,5,3.03,9.65l6.54,21.03c.65,2.19,1.46,5.06,2.4,8.58l2.04-5.11,15.49-33.97c.27-.62.57-1.33.91-2.13.34-.8.88-2.15,1.62-4.05,4.3.06,7.75.09,10.36.09,1.63,0,4.86-.03,9.69-.09-3.02,5.63-6.44,12.21-10.26,19.73l-15.32,30.39c-1.48,2.96-3.14,6.47-4.97,10.53-4.98-.06-8.53-.09-10.67-.09-1.99,0-5.73.03-11.24.09Z"/><path d="M1124.4,766.78c1.71-23.79,2.56-42.09,2.56-54.92l-.04-5.73c5.19.06,8.66.09,10.41.09.8,0,3.99-.03,9.56-.09-.54,6.67-.97,12.97-1.29,18.93-.42,8.29-.71,16.05-.89,23.26-.18,7.21-.27,13.37-.27,18.46l-9.1-.09c-1.78,0-5.42.03-10.93.09Z"/><path d="M1207.84,751.98c-.36,1.74-.79,4.17-1.29,7.29-.5,3.12-.84,5.53-1.02,7.24-6.34.95-12,1.42-16.97,1.42s-9.26-.6-13.4-1.8c-4.13-1.2-7.92-3.17-11.38-5.91-3.45-2.74-5.92-5.96-7.4-9.67-1.48-3.7-2.22-7.85-2.22-12.44,0-5.36,1-10.18,3-14.46,2-4.28,4.87-7.85,8.62-10.71s7.86-4.9,12.33-6.13c4.47-1.23,9.09-1.84,13.86-1.84,4.38,0,9.8.56,16.26,1.69l.09,3.73c.06,1.63.15,3.42.27,5.38l.31,5.07c-3.47-.83-6.27-1.39-8.42-1.69-2.15-.3-4.14-.44-5.98-.44-4,0-7.6.8-10.8,2.4s-5.72,3.93-7.55,6.98c-1.84,3.05-2.76,6.43-2.76,10.13,0,3.38.77,6.27,2.31,8.69,1.54,2.41,3.62,4.28,6.24,5.6,2.62,1.32,5.86,1.98,9.71,1.98,2.1,0,4.39-.17,6.87-.51,2.47-.34,5.58-1,9.31-1.98Z"/><path d="M1216.29,766.78c.74-7.64,1.28-14.04,1.63-19.2s.68-12,1.02-20.55c.34-8.55.51-14.21.51-17l-.04-3.91c6.99.06,15.44.09,25.37.09,9.15,0,17.22-.03,24.21-.09l-.09,1.46c-.03.35-.1,1.64-.22,3.85l-.27,4.83c-.06,1.03-.09,2.08-.09,3.14-5.72-.24-10.52-.36-14.4-.36-4.27,0-7.15,0-8.64.02s-3.83.08-7,.2l-.54,10.22c3.5.09,7.57.13,12.22.13,1.66,0,6.07-.1,13.24-.31-.3,3.79-.58,8.31-.84,13.55-5.12-.06-9.06-.09-11.81-.09-4.09,0-8.66.1-13.72.31l-.53,10.8h5.11c1.51,0,4.63-.04,9.37-.13l9.19-.22c1.36-.03,3.64-.15,6.84-.36-.36,4.38-.65,8.92-.89,13.6-7.23-.06-15.15-.09-23.77-.09l-19.55.04-6.31.04Z"/></g></g></g></svg>