<?xml version="1.0" encoding="UTF-8"?><svg id="a" xmlns="http://www.w3.org/2000/svg" viewBox="0 0 800 676.78"><path d="M542.16,164.86c0-15.76,28.45-65.62,28.45-65.62,0,0,28.43,49.87,28.43,65.62s-12.77,28.45-28.43,28.45c-15.7.05-28.45-12.7-28.45-28.45ZM484.91,146.32c15.73,0,28.48-12.77,28.48-28.45s-28.48-65.68-28.48-65.68c0,0-28.43,49.89-28.43,65.68-.03,15.66,12.69,28.45,28.43,28.45ZM400,193.36c15.73,0,28.43-12.77,28.43-28.48s-28.43-65.62-28.43-65.62c0,0-28.45,49.84-28.45,65.62s12.72,28.48,28.45,28.48ZM314.3,146.32c15.73,0,28.48-12.77,28.48-28.45s-28.48-65.68-28.48-65.68c0,0-28.45,49.89-28.45,65.68,0,15.66,12.72,28.45,28.45,28.45ZM229.39,193.36c15.73,0,28.45-12.77,28.45-28.48s-28.45-65.62-28.45-65.62c0,0-28.45,49.84-28.45,65.63s12.72,28.48,28.45,28.48ZM143.68,146.32c15.73,0,28.48-12.77,28.48-28.45s-28.48-65.68-28.48-65.68c0,0-28.45,49.89-28.45,65.68,0,15.66,12.72,28.45,28.45,28.45ZM656.3,146.32c15.73,0,28.48-12.77,28.48-28.45s-28.48-65.68-28.48-65.68c0,0-28.48,49.89-28.48,65.68s12.75,28.45,28.48,28.45ZM757.33,0H42.61v26.67h714.72V0ZM800,577.5h-29.34v37.79h-105.68c-6.29,34.94-36.77,61.5-73.44,61.5s-67.2-26.56-73.52-61.5h-227.35c-6.32,34.94-36.77,61.5-73.44,61.5s-67.15-26.56-73.47-61.5H22.45v-37.79H0v-53.33h22.43v-104.83h171.95l84.67-146.16h346.35l84.67,146.16h60.61v104.83h29.34v53.33h0ZM265.33,601.95c0-26.53-21.6-48.13-48.13-48.13s-48.16,21.6-48.16,48.13,21.6,48.16,48.16,48.16,48.13-21.6,48.13-48.16ZM639.71,601.95c0-26.53-21.6-48.13-48.16-48.13s-48.21,21.6-48.21,48.13,21.65,48.16,48.21,48.16,48.16-21.6,48.16-48.16ZM744,446h-49.33l-84.67-146.16h-315.57l-84.67,146.16H49.12v142.61h94.64c6.32-34.91,36.77-61.47,73.47-61.47s67.15,26.56,73.44,61.47h227.39c6.32-34.91,36.8-61.47,73.52-61.47s67.18,26.56,73.44,61.47h78.99v-142.61h0ZM437.89,444.19h140.35v-113.87h-140.35v113.87ZM604.9,444.19h53.54l-53.54-92.43v92.43ZM246.05,444.19h165.17v-113.87h-99.23l-65.95,113.87Z" fill="#fff"/></svg>