<?xml version="1.0" encoding="UTF-8"?><svg id="a" xmlns="http://www.w3.org/2000/svg" viewBox="0 0 800 397.78"><path d="M798.46,279.01l-34.47-195.5C755.45,35.12,713.54,0,664.34,0H135.66C86.46,0,44.56,35.12,36.02,83.52L1.55,279.01c-5.21,29.55,2.87,59.67,22.17,82.65,19.28,22.95,47.55,36.11,77.56,36.11h597.45c29.96,0,58.21-13.17,77.5-36.13,19.33-23.01,27.43-53.13,22.23-82.63ZM735.98,327.84c-9.28,11.04-22.85,17.38-37.25,17.38h-253.25l162.12-87.77,86.27-13.57c14.34-2.25,24.13-15.7,21.88-30.04-2.25-14.34-15.71-24.13-30.04-21.88l-247.73,38.96c-14.34,2.25-24.13,15.7-21.88,30.04,2.25,14.34,15.7,24.13,30.04,21.88l5.87-.92-116.93,63.3H101.28c-14.45,0-28.05-6.33-37.31-17.36-9.28-11.04-13.16-25.52-10.66-39.72l34.47-195.5c4.1-23.23,24.23-40.09,47.88-40.09h238.06v22.78h-30.24c-14.51,0-26.28,11.77-26.28,26.28s11.77,26.28,26.28,26.28h115.63c14.51,0,26.28-11.77,26.28-26.28s-11.77-26.28-26.28-26.28h-32.84v-22.78h238.07c23.65,0,43.78,16.86,47.88,40.09l34.47,195.49c2.49,14.15-1.41,28.62-10.72,39.7Z" fill="#fff"/></svg>