<?xml version="1.0" encoding="UTF-8"?><svg id="a" xmlns="http://www.w3.org/2000/svg" viewBox="0 0 768.96 800"><path d="M592.23,581.32l-14.4,14.56-11.13-11.15c3.1-2.9,6.38-5.51,9.38-8.51,131.62-131.62,131.62-345.76,0-477.43C512.36,35.06,427.6,0,337.46,0S162.5,35.06,98.73,98.83c-131.62,131.62-131.64,345.76-.05,477.38,63.77,63.75,148.53,98.83,238.7,98.83,79.02,0,153.89-26.99,214.12-76.51l11.87,11.87-14.4,14.48,176.73,175.11,43.27-43.7-176.73-174.98ZM113.23,561.76c-123.59-123.59-123.57-324.75.03-448.34C173.16,53.54,252.8,20.55,337.51,20.55s164.3,32.93,224.17,92.81c123.59,123.64,123.59,324.8,0,448.39-59.88,59.88-139.51,92.86-224.25,92.86-84.71,0-164.32-32.99-224.19-92.86ZM521.87,288.81c-8.33-62.62-42.83-108.39-85.35-108.39h-198.16c-42.52,0-77.02,45.67-85.38,108.39-30.43,15.51-46.42,47.32-46.42,84.4,0,28.48,9.56,53.72,27.6,71.07v59.44h73.46v-35.86h259.59v35.86h73.43v-59.44c18.05-17.41,27.6-42.6,27.6-71.07.06-37.09-15.94-68.87-46.39-84.4ZM238.36,202.51h198.16c27.96,0,52.41,33.09,61.47,77.94-4.51-.85-9.48-1.1-14.4-1.36,0-.21.05-.36.05-.54,0-25.99-21.15-47.16-47.16-47.16s-47.11,21.17-47.11,47.16h-192.06c-7.26,0-14.05.69-20.48,1.9,9.15-44.86,33.6-77.95,61.54-77.95ZM468.99,278.56h-64.87c0-17.87,14.56-32.5,32.42-32.5,17.89,0,32.45,14.61,32.45,32.5ZM186.39,404c-16.97,0-30.76-13.76-30.76-30.78s13.79-30.73,30.76-30.73,30.78,13.76,30.78,30.73c0,17.02-13.79,30.78-30.78,30.78ZM426.78,398.49h-178.7c-4.08,0-7.35-3.26-7.35-7.31s3.28-7.35,7.35-7.35h178.7c4.08,0,7.35,3.31,7.35,7.35s-3.25,7.31-7.35,7.31ZM426.78,371.58h-178.7c-4.08,0-7.35-3.31-7.35-7.31s3.28-7.35,7.35-7.35h178.7c4.08,0,7.35,3.26,7.35,7.35.03,4-3.25,7.31-7.35,7.31ZM488.55,404c-16.99,0-30.78-13.76-30.78-30.78s13.79-30.73,30.78-30.73,30.76,13.76,30.76,30.73-13.79,30.78-30.76,30.78Z" fill="#fff"/></svg>