<?xml version="1.0" encoding="UTF-8"?><svg id="a" xmlns="http://www.w3.org/2000/svg" viewBox="0 0 786.91 738.39"><path d="M18.69,670.71l49.26,49.26c27.12,26.5,57.99,24.32,85.42-5.92l326.42-355.42c13.41,9.35,25.88,9.04,41.15,5.92l33.36-6.86,22.14,22.14-1.56,16.52c-2.18,17.15,2.8,30.24,18.7,46.14l26.19,25.88c15.9,16.21,37.1,17.15,52.38,1.87l103.82-103.82c15.27-15.28,14.34-36.17-1.56-52.38l-26.19-26.19c-15.9-15.9-29.31-21.51-46.14-19.02l-16.83,1.87-21.2-21.2,9.35-36.48c4.37-18.08-.31-32.74-19.95-52.07l-77-76.69c-113.17-112.55-258.15-109.12-357.29-9.04-13.72,13.72-14.96,32.42-6.23,46.14,7.17,11.85,22.45,19.02,43.34,13.72,48.32-12.16,96.65-8.42,144.04,23.69l-19.95,50.51c-7.48,18.71-6.86,33.98.62,48.01L24.62,585.28c-29.93,27.75-33.36,57.99-5.92,85.42ZM268.73,87.7c85.11-63.6,191.11-53.31,267.81,23.38l83.86,83.24c7.48,7.48,8.42,13.41,6.24,22.76l-11.84,49.88,50.19,50.19,30.55-2.81c9.04-.94,11.84-.31,19.33,6.86l19.65,19.95-87.61,87.92-19.95-19.95c-7.17-7.17-7.8-9.98-6.86-19.02l2.8-30.87-49.88-49.88-51.76,9.98c-9.04,1.87-13.72,1.87-21.51-5.92l-69.21-69.52c-7.48-7.48-8.42-11.85-4.37-21.82l30.55-72.95c-51.13-48.95-118.78-76.07-183.94-55.18-2.81.94-4.68.31-5.61-.94-.94-1.56-.94-3.12,1.56-5.3ZM59.22,648.26c-15.9-15.9-10.29-25.57.31-35.23l350.12-322.99,38.97,39.28L124.69,678.19c-9.66,10.6-21.82,13.72-34.92.94l-30.55-30.87Z" fill="#fff"/></svg>