<?xml version="1.0" encoding="UTF-8"?><svg id="a" xmlns="http://www.w3.org/2000/svg" viewBox="0 0 677.92 640.64"><path d="M665.41,615.62c-77.59,0-100.66-61.64-106.77-86.27l22.14-7.66c6.52-2.26,9.98-9.38,7.72-15.9h0s-68.75-198.24-68.75-198.24h82.02c6.9,0,12.5-5.6,12.5-12.5v-21.14h27.41v20.84c0,6.9,5.6,12.5,12.5,12.5s12.5-5.6,12.5-12.5v-66.64c0-6.9-5.6-12.5-12.5-12.5s-12.5,5.6-12.5,12.5v20.86h-27.37v-54.22c0-6.9-5.6-12.5-12.5-12.5h-204.31v-37.12c32.95-13.06,54.61-44.87,54.69-80.31V25h13c6.9,0,12.5-5.6,12.5-12.5s-5.6-12.5-12.5-12.5h-198.81c-6.9,0-12.5,5.6-12.5,12.5s5.6,12.5,12.5,12.5h13.02v39.83c.07,35.44,21.74,67.26,54.69,80.31v37.12h-132.28c-6.9,0-12.5,5.6-12.5,12.5v5.69l-55.34,31.95h-20.48c-6.9,0-12.5,5.6-12.5,12.5s5.6,12.5,12.5,12.5h20.48l55.34,31.95v5.67c0,6.9,5.6,12.5,12.5,12.5h87.64v115.39l-28.91,28.91c-4.88,4.88-4.88,12.8,0,17.68,4.88,4.88,12.8,4.88,17.68,0l32.63-32.55c.3-.3.58-.61.84-.92l.31-.42.41-.56c.13-.17.22-.36.33-.53l.31-.52.27-.56c.08-.19.17-.36.25-.55s.14-.37.2-.56c.08-.19.15-.39.2-.59,0-.19.11-.37.16-.58s.11-.41.14-.61.08-.45.11-.67,0-.36,0-.53c.02-.41.02-.82,0-1.23v-120.58h71.59c22.07,0,41.72,13.99,48.95,34.84l67.02,193.36c2.26,6.52,9.38,9.98,15.9,7.72h0s17.19-5.94,17.19-5.94c4.13,15.44,10.52,30.18,18.95,43.75,17.05,27.06,50.23,59.38,111.45,59.38,6.9,0,12.5-5.6,12.5-12.5s-5.6-12.5-12.5-12.5l-.02-.02ZM359.06,150.97h.45c.7,0,1.41.09,2.11.13h8.22c.72,0,1.45,0,2.17-.13h.44v31.25h-13.42l.03-31.25ZM304.37,64.83V25h122.8v39.83c.01,33.88-27.44,61.35-61.32,61.37-3.05,0-6.1-.23-9.12-.68-2.33-.33-4.64-.81-6.91-1.42-26.78-7.25-45.39-31.52-45.45-59.27h0ZM162.28,244.91l27-15.62v31.25l-27-15.62ZM498.75,450.08l-22.3-64.42c2.09.92,4.06,2.1,5.86,3.52,7.06,5.41,13.17,14.44,16.75,24.77,4.98,14.48,3.95,28.16-.31,36.14ZM507.91,476.45c18.41-12.17,25-41.19,14.75-70.7-5.22-15.05-14.16-27.98-25.16-36.42-9.55-7.31-20.16-10.73-30.17-9.95l-8.73-25.17c-10.72-30.92-39.85-51.66-72.58-51.67h-171.73v-75.27h375v75.27h-87.06c-6.9,0-12.5,5.59-12.5,12.5,0,1.39.23,2.78.69,4.1l70.31,203.02-20.53,7.11h-.09l-18.64,6.45-13.55-39.25ZM56.14,257.41H12.5c-6.9,0-12.5-5.6-12.5-12.5s5.6-12.5,12.5-12.5h43.64c6.9,0,12.5,5.6,12.5,12.5s-5.6,12.5-12.5,12.5ZM77.84,210.53c-3.45,5.98-11.09,8.03-17.07,4.58,0,0,0,0,0,0l-37.75-21.88c-6.07-3.29-8.31-10.88-5.02-16.95s10.88-8.31,16.95-5.02c.19.1.38.21.57.33l37.75,21.88c5.97,3.47,8,11.12,4.54,17.09,0,0,0,0,0,0l.05-.03ZM77.84,279.28c3.44,5.98,1.39,13.61-4.58,17.06l-37.75,21.88c-5.98,3.45-13.63,1.4-17.08-4.58-3.45-5.98-1.4-13.63,4.58-17.08l37.75-21.88c5.97-3.42,13.58-1.39,17.03,4.56l.05.03Z" fill="#fff"/></svg>