<?xml version="1.0" encoding="UTF-8"?><svg id="a" xmlns="http://www.w3.org/2000/svg" viewBox="0 0 617.58 800"><path d="M617.58,534.27v-86.1h-39.01c-6.93-43.33-23.89-83.23-48.64-117.22l27.65-27.65-60.88-60.88-27.65,27.65c-34-24.72-73.89-41.7-117.22-48.61v-39.04h-86.08v39.04c-43.3,6.9-83.12,23.89-117.22,48.61l-27.6-27.65-60.9,60.88,27.65,27.65c-24.77,34.05-41.68,73.92-48.61,117.22H0v86.1h39.01c6.93,43.3,23.86,83.17,48.61,117.22l-27.65,27.63,60.9,60.88,27.6-27.65c34.05,24.72,73.89,41.68,117.22,48.61v39.04h86.08v-39.04c43.33-6.93,83.17-23.89,117.22-48.61l27.65,27.65,60.88-60.88-27.65-27.63c24.8-34.03,41.7-73.89,48.64-117.22h39.06ZM496.17,491.21c0,103.33-84.05,187.38-187.38,187.38s-187.38-84.05-187.38-187.38,84.05-187.38,187.38-187.38,187.38,84.05,187.38,187.38ZM308.79,338.68c-84.11,0-152.55,68.42-152.55,152.53s68.42,152.55,152.55,152.55,152.53-68.42,152.53-152.55c.03-84.07-68.42-152.53-152.53-152.53ZM308.79,615.05c-68.32,0-123.86-55.57-123.86-123.86s55.52-123.81,123.86-123.81,123.84,55.54,123.84,123.81-55.52,123.86-123.84,123.86ZM395.67,157.28l-17.15,17.12,20.32,20.29,17.15-17.12c10.16,7.23,21.97,12.19,34.85,14.37v24.27h28.61v-24.27c12.8-2.19,24.69-7.15,34.85-14.37l17.15,17.12,20.27-20.29-17.09-17.12c7.2-10.18,12.13-22,14.37-34.8h24.27v-28.72h-24.27c-2.24-12.8-7.2-24.61-14.37-34.83l17.09-17.15-20.27-20.29-17.15,17.15c-10.21-7.23-21.97-12.19-34.85-14.37V0h-28.64v24.27c-12.8,2.19-24.64,7.15-34.85,14.37l-17.15-17.15-20.32,20.29,17.15,17.15c-7.23,10.18-12.19,22-14.37,34.83h-24.27v28.72h24.27c2.21,12.83,7.15,24.64,14.4,34.8ZM465.08,65.89c23.28,0,42.24,18.93,42.24,42.24s-18.96,42.24-42.24,42.24-42.24-18.93-42.24-42.24,19.02-42.24,42.24-42.24Z" fill="#fff"/></svg>