<?xml version="1.0" encoding="UTF-8"?><svg id="a" xmlns="http://www.w3.org/2000/svg" viewBox="0 0 800 782.53"><path d="M666.47,566.21l-166.08-166.08,134.8-134.8c43.77,10.16,91.6-1.5,125.77-35.67,37.4-37.36,47.65-91.1,31.95-138.09l-63.47,63.43c-22.45,22.52-59.52,21.82-82.89-1.56-23.28-23.32-24.01-60.38-1.59-82.86l63.43-63.43c-46.89-15.81-100.6-5.48-138.06,31.95-34.11,34.07-45.73,81.9-35.54,125.74l-134.8,134.77-134.74-134.74c10.16-43.8-1.56-91.63-35.63-125.77C192.25,1.69,138.56-8.6,91.56,7.11l63.43,63.47c22.49,22.45,21.82,59.55-1.59,82.89-23.32,23.32-60.31,24.01-82.86,1.59L7.11,91.59c-15.74,46.93-5.45,100.7,32.01,138.09,34.04,34.14,81.86,45.73,125.74,35.6l134.74,134.7-166.05,166.05c-30.22-2.09-61.11,7.94-84.12,31.09-42.45,42.38-42.45,111.12,0,153.57,42.31,42.34,111.09,42.34,153.47,0,23.08-23.08,33.08-54,31.15-84.22l165.95-166.02,166.08,166.08c-2.06,30.22,8,61.14,31.09,84.19,42.34,42.41,111.16,42.41,153.53,0,42.38-42.38,42.38-111.12,0-153.53-23.09-23.08-54.01-33.11-84.23-30.99ZM140.88,729.07l-55.23-14.74-14.71-55.23,40.35-40.42,55.23,14.78,14.78,55.2-40.42,40.42ZM714.29,714.43l-55.2,14.71-40.42-40.42,14.74-55.2,55.23-14.78,40.45,40.42-14.81,55.26Z" fill="#fff"/></svg>