<?xml version="1.0" encoding="UTF-8"?><svg id="a" xmlns="http://www.w3.org/2000/svg" viewBox="0 0 800 275.87"><path d="M780.54,40.36L717.95,0l-241.72,85.93-45.22-26.77h-114.33v-14.91h49.07V3.62h-138.82v40.63h49.1v14.91h-127.71L64.15,10.68,0,77.62l136.38,176.59,1.27-1v22.66h294.96L716.66,47.55l41.9,27.01,21.98-34.2ZM53.53,80.44l17.94-18.69,66.14,38.14v89.44L53.53,80.44ZM418.28,235.24h-239.97V99.79h241.59l52.02,30.82,137.17-48.76-190.81,153.38ZM800,158.9c0,16.8-13.63,30.45-30.45,30.45s-30.49-13.62-30.49-30.45,30.49-70.25,30.49-70.25c0,0,30.45,53.41,30.45,70.25Z"/></svg>