<?xml version="1.0" encoding="UTF-8"?><svg id="a" xmlns="http://www.w3.org/2000/svg" viewBox="0 0 775 425"><path d="M575,125h150V50h-150v75ZM600,75h100v25h-100v-25Z" fill="#6c0007"/><path d="M204.75,95.83c-75.34,43.06-129.19,116.51-147.72,201.51l24.42,5.32c17.04-78.1,66.49-145.57,135.7-185.14l51.55-29.45-12.4-21.7-51.55,29.45Z" fill="#6c0007"/><path d="M737.5,0h-297.05c-20.21,0-40.45,4.77-58.54,13.81-14.64,7.33-31.01,11.19-47.36,11.19h-22.05c-6.89,0-12.5-5.61-12.5-12.5V0h-28.33l-91.72,52.43C68.95,115.85,0,234.65,0,362.5v12.5h31.25l37.5,50h256.25v-12.5c0-82.71,67.29-150,150-150s150,67.29,150,150v12.5h112.5c20.67,0,37.5-16.83,37.5-37.5V37.5c0-20.67-16.83-37.5-37.5-37.5ZM62.5,375h31.25l18.75,25h-31.25l-18.75-25ZM156.25,375l18.75,25h-31.25l-18.75-25h31.25ZM206.25,400l-18.75-25h31.25l18.75,25h-31.25ZM475,237.5c-92.29,0-168.13,71.81-174.56,162.5h-24.8c6.5-104.45,93.31-187.5,199.36-187.5s192.86,83.05,199.36,187.5h-24.8c-6.44-90.69-82.28-162.5-174.56-162.5ZM750,387.5c0,6.9-5.61,12.5-12.5,12.5h-38.14c-6.54-118.24-104.51-212.5-224.36-212.5-112.56,0-205.81,83.19-222.19,191.25l-21.56-28.75H25.24c4.32-114.09,67.51-218.96,167.11-275.87l84.99-48.57c5.33,14.26,19.07,24.45,35.16,24.45h22.05c20.21,0,40.45-4.77,58.54-13.81,14.62-7.31,31-11.19,47.36-11.19h297.05c6.89,0,12.5,5.61,12.5,12.5v350Z" fill="#6c0007"/></svg>