<?xml version="1.0" encoding="UTF-8"?><svg id="a" xmlns="http://www.w3.org/2000/svg" viewBox="0 0 1018.45 856.95"><path d="M763.81,430.75c-21.49.27-91.4.78-104.31.88v197.33h.02v-85.92l218.96.89-75.26-94.81s-15.7-18.67-39.41-18.37Z" fill="none"/><path d="M623.06,543.93v-112.6h-165.93s-24.89-1.19-44.44,22.81-67.26,89.78-67.26,89.78l-45.25,2.22h0s45.26-2.21,45.26-2.21h277.63Z" fill="none"/><circle cx="226.78" cy="774.43" r="82.52" transform="translate(-481.18 387.19) rotate(-45)" fill="#6c0007"/><circle cx="833.45" cy="774.43" r="82.52" fill="#6c0007"/><polygon points="300.17 546.14 300.17 546.15 300.18 546.14 300.17 546.14" fill="#6c0007"/><path d="M1018.33,613.85c2.07-28.15-24-48.59-24-48.59-19.86-14.22-49.19-16.89-49.19-16.89-26.08-2.37-34.67-20.44-34.67-20.44,0,0-49.48-65.18-78.52-97.78s-65.48-31.41-65.48-31.41h-141.63.01v31.56h-.02v-31.56l-171.85.3c-40,1.78-62.22,29.63-62.22,29.63l-90.58,117.47,45.25-2.22s47.71-65.78,67.26-89.78,44.44-22.81,44.44-22.81h165.93v112.6h-277.63l-45.26,2.22-2.44,82.8h0s2.43-82.8,2.43-82.8l-158.22,29.33c-34.22,3.11-60.44,26.22-60.44,26.22-35.56,21.78-64.67,107.56-64.67,107.56v46.67c2.89,25.11,29.33,30.22,29.33,30.22h45.8,0s0,0,0,0l20.18-.06h0s.26-24.49.26-24.49c0,0,9.19-98.81,114.37-101.69,0,0,112.74-1.57,114.52,124.89h24.89s332.72,1.35,332.72,1.35v-162.73h.02s276.44,3.11,276.44,3.11v12.52h-.01v-12.51l-276.44-3.11v162.73h20.61-.01s-9.31-116.96,113.93-129.4c0,0,112.46,1.33,114.52,127.11l27.39-.44h0c32.43,1.83,43.07-37.42,43.07-37.42v-106.96h.02l-.12-25.19ZM659.52,543.04v85.92h-.02s0-197.33,0-197.33c12.91-.09,82.82-.6,104.31-.88,23.71-.3,39.41,18.37,39.41,18.37l75.26,94.81-218.96-.89Z" fill="#6c0007"/><path d="M248.99,80.74l32.89,30.22-30.22,31.56,56.44,55.56,27.56-27.56h34.22s-15.11,53.33-16.44,78.22c0,0,5.33,14.67,16.44,0v-2.22s29.32-55.11,38.21-68l14.67,12.44s8.44,5.19,16-7.85l16-18.81s3.56-7.56-4.89-16l-101.33-100.89s-29.78-27.11-70.22-8l-32,24s-8,10.67,2.67,17.33Z" fill="#6c0007"/><path d="M153.58,443.12l64-65.33c18.22-12.45,24-30.67,24-30.67,0,0,48.88-86.67,60.44-102.67s0-31.56,0-31.56l-65.33-64v.02c-14.67-10.67-29.34,0-29.34,0l-91.11,54.22c-26.66,9.33-41.33,28.89-41.33,28.89l-62.22,62.22c-21.33,16.89-9.33,37.33-9.33,37.33l111.11,113.33c20.89,14.22,39.11-1.78,39.11-1.78Z" fill="#6c0007"/><path d="M445.13,226.67h0l91.56,132s13.33,8,10.22-6.67c-3.11-14.67-91.41-130.22-91.41-130.22,0,0-11.26-9.33-10.37,4.89Z" fill="#6c0007"/><path d="M468.24,200.45l201.78,154.67s21.78,9.78,8.89-9.33-200.89-154.22-200.89-154.22c0,0-16-8-9.78,8.89h0Z" fill="#6c0007"/><path d="M624.36,184.85c.31.03.48.04.48.04-.16-.02-.32-.02-.48-.04Z" fill="#6c0007"/><path d="M582.91,226.67s5.15-44.92,41.45-41.82c-4.34-.38-37.18-4.49-41.82-40.93,0,0-6.27,44.25-41.99,40.99,3.53.3,38.13,4.22,42.36,41.76Z" fill="#6c0007"/><path d="M540.56,184.91c-.19-.02-.31-.02-.31-.02.11.01.21.02.31.02Z" fill="#6c0007"/><path d="M704.1,159.55c15.85-80.44,79.26-77.33,79.26-77.33C707.36,73.78,704.69,0,704.69,0c-8.44,76.44-79.85,82.22-79.85,82.22h0c78.82,7.55,79.26,77.33,79.26,77.33Z" fill="#6c0007"/><path d="M750.45,224c63.11,13.77,68,64.44,68,64.44,9.34-57.77,62.67-64.44,62.67-64.44-56.88-6.23-64.44-67.56-64.44-67.56-10.22,65.78-66.22,67.56-66.22,67.56h-.01Z" fill="#6c0007"/></svg>