<?xml version="1.0" encoding="UTF-8"?><svg id="a" xmlns="http://www.w3.org/2000/svg" viewBox="0 0 657.81 500"><path d="M170.31,0c-33.01,0-62.4,21.48-71.88,53.12l-34.38,114.84-48.44-16.41L0,198.44l49.22,16.41-15.62,53.12c-.59,2.25-.88,4.69-.78,7.03v200c0,13.77,11.23,25,25,25h75l16.41-50h131.25l248.44,38.28,3.91,11.72h75.78c6.05,0,11.91-2.25,16.41-6.25l.78-.78c.29-.29.59-.49.78-.78,3.81-4.3,6.05-9.86,6.25-15.62v-2.34c.1-1.07.1-2.05,0-3.12l-21.09-146.09h46.09v-50h-59.38l-53.12-108.59,21.88-73.44c3.12-10.06-.29-20.9-8.59-27.34l-48.44-35.94c-3.71-2.64-8.01-4.3-12.5-4.69L171.88,0h-1.56ZM170.31,50l315.62,24.22,28.12,21.09-19.53,65.62c-1.95,6.25-1.37,12.99,1.56,18.75l37.5,76.56-153.12-53.12-3.12-1.56h-3.12l-260.94-24.22,32.81-109.38c3.22-10.74,13.09-17.97,24.22-17.97ZM98.44,226.56l269.53,25h1.56l190.62,67.19,17.97,125.78-289.84-44.53c-1.27-.1-2.64-.1-3.91,0h-28.91l10.94-25,107.81,15.62,64.84,9.38-31.25-50-175-25-31.25,75h-118.75v-120.31l15.62-53.12ZM145.31,250c-20.7,0-37.5,16.8-37.5,37.5s16.8,37.5,37.5,37.5,37.5-16.8,37.5-37.5-16.8-37.5-37.5-37.5ZM454.69,318.75c-8.4,23.54,3.81,49.41,27.34,57.81s49.41-3.81,57.81-27.34l-85.16-30.47Z" fill="#6c0007"/></svg>