<?xml version="1.0" encoding="UTF-8"?><svg id="a" xmlns="http://www.w3.org/2000/svg" viewBox="0 0 716.67 716.67"><g id="b"><path d="M425,625c0,36.82-29.85,66.67-66.67,66.67s-66.67-29.85-66.67-66.67,29.85-66.67,66.67-66.67,66.67,29.85,66.67,66.67Z" fill="none" isolation="isolate" opacity=".5" stroke="#6c0007" stroke-miterlimit="133.33" stroke-width="50"/><path d="M158.33,91.67c0-31.43,0-47.14,9.76-56.9,9.76-9.76,25.48-9.76,56.9-9.76h266.67c31.43,0,47.14,0,56.9,9.76,9.76,9.76,9.76,25.48,9.76,56.9s0,47.14-9.76,56.9c-9.76,9.76-25.48,9.76-56.9,9.76H225c-31.43,0-47.14,0-56.9-9.76-9.76-9.76-9.76-25.48-9.76-56.9Z" fill="none" stroke="#6c0007" stroke-miterlimit="133.33" stroke-width="50"/><path d="M241.67,508.33c0-27.61,22.39-50,50-50h133.33c27.61,0,50,22.39,50,50s-22.39,50-50,50h-133.33c-27.61,0-50-22.39-50-50Z" fill="none" stroke="#6c0007" stroke-miterlimit="133.33" stroke-width="50"/><path d="M425,475V141.67" fill="none" isolation="isolate" opacity=".5" stroke="#6c0007" stroke-miterlimit="133.33" stroke-width="50"/><path d="M291.67,475V158.33" fill="none" isolation="isolate" opacity=".5" stroke="#6c0007" stroke-miterlimit="133.33" stroke-width="50"/><path d="M225,225l266.67,66.67M225,341.67l266.67,66.67" fill="none" stroke="#6c0007" stroke-linecap="round" stroke-miterlimit="133.33" stroke-width="50"/><path d="M625,341.65h66.67M91.67,341.68H25M594.04,435l23.57,23.33M122.62,435l-23.57,23.33M594.04,248.33l23.57-23.33M122.62,248.33l-23.57-23.33" fill="none" isolation="isolate" opacity=".5" stroke="#6c0007" stroke-linecap="round" stroke-miterlimit="133.33" stroke-width="50"/></g></svg>