<?xml version="1.0" encoding="UTF-8"?><svg id="a" xmlns="http://www.w3.org/2000/svg" viewBox="0 0 880.35 925.64"><path d="M209.97,243.22s-79.11,7.11-96.89,116.89c0,0-17.78,220-8.44,256,0,0,24.44,5.78,47.56,23.11,0,0,14.67,7.11,27.56,9.33h294.22s20.89.44,50.22-22.22c0,0,4.44,4.89,8,10.67s12,14.67,12,14.67c0,0-31.56,23.56-71.56,28.44s-289.33,0-289.33,0c0,0-35.11-2.22-64.89-25.78,0,0-27.56-18.67-58.22-6.67s-28.44,45.33-28.44,45.33c0,0-3.56,35.56,19.11,72.89s53.78,46.22,53.78,46.22c0,0,12.44,4,24.89,4h403.11s70.67-7.56,85.33-96.89c0,0,14.22-39.11-13.33-65.33l28.89-13.78s21.33,18.67,18.22,61.33c0,0,.89,71.56-48.44,114.67,0,0-40,34.67-81.78,30.67l-7.11,63.11s1.78,17.78-19.56,15.56l-342.67.19s-15.11-2.86-13.33-14.41l-6.67-64.89s-42.67,1.33-69.33-20-42.22-48-42.22-48c0,0-23.11-45.78-20.44-88s25.78-58.67,25.78-58.67c0,0,23.56-20.44,47.56-17.33,0,0-2.67-144.44.44-169.33s.44-70.22,16.89-127.11,60-87.56,81.33-95.11,27.56-12.44,84-10.67l.78.04v-9.22l31.44.11.44,9.33h74.67l-.44-8.89h32v8l52.44,1.33s68.44,9.78,99.11,72.89l18.67,44.89-28,12.89s-21.61-91.56-97.03-100l-230.3-.26h-.02Z" fill="#6c0007"/><path d="M267.38,173.55h129.78s56.59-7.11,54.22-64.3-54.22-72.3-54.22-72.3c0,0-9.48-6.81-27.85-5.33l-90.37-.21s-70.22,9.4-71.41,79.03h-31.7s.59-65.48,50.67-91.85c0,0,23.11-16.89,57.78-18.07s98.07,0,98.07,0c0,0,63.41,8,87.7,61.63s3.56,91.26,3.56,91.26c0,0-15.7,44.44-78.52,50.07l-138.11-.56,10.41-29.37h0Z" fill="#6c0007"/><path d="M175.82,110.44s-6.59,79.48,81.15,92.48l10.41-29.37s-61.04-2.67-59.85-63.11h-31.71Z" fill="#6c0007"/><circle cx="291.53" cy="308.22" r="14.96" fill="#6c0007"/><circle cx="426.04" cy="353.85" r="14.23" fill="#6c0007"/><circle cx="202.64" cy="440.96" r="19.56" transform="translate(-265.09 570.36) rotate(-80.78)" fill="#6c0007"/><path d="M216.86,342.88s-21.63,26.07,0,49.78c0,0,9.48,9.19,33.19,13.93s9.48,28.44,9.48,28.44c0,0-34.37,23.7-32.89,45.04s14.81,34.96,14.81,34.96c0,0,26.37,22.22,56.3-2.96,0,0,9.19-10.07,11.56-13.04s7.7-6.52,14.81-5.63,10.96,7.41,10.96,7.41c0,0,7.11,3.89,6.52,23.28s26.07,24.72,26.07,24.72c0,0,26.37,4.44,34.67-23.41,0,0,6.52-19.26-14.81-38.81,0,0-10.67-21.93,12.15-26.07,0,0,32.02,5.04,40.6-21.04s-16.3-39.11-16.3-39.11c0,0-8.3-3.56-27.26-2.67s-12.15-26.96-12.15-26.96c0,0,17.78-29.33-15.11-50.07,0,0-31.7-16.59-51.85,21.63s-34.67,11.56-34.67,11.56c0,0-40.59-42.96-66.07-10.96v-.02Z" fill="#6c0007"/><circle cx="294.19" cy="549.07" r="10.55" fill="#6c0007"/><path d="M663.23,458.49l-43.56-98.12s-4.89-13.04-20.44-6.52-120.89,55.41-120.89,55.41c0,0-11.11,6.22-4.89,18.22s88,192,88,192c0,0,4,13.33,20,6.67s89.33-40.89,89.33-40.89c0,0-34.67-24-33.78-63.11l-103.56-65.78s-16-11.56-4.44-34.67,38.22-9.33,38.22-9.33l96,46.12h.01Z" fill="#6c0007"/><path d="M651.67,513.7l-108.44-69.78,12.67-19.78,140.89,68.22s31.11,6.89,8-15.11l-18.67-7.11-24-55.33s12.44-7.56,31.33,6.44,94,67.78,110.22,84.67c16.22,16.89,42.89,22.67,42.89,22.67l24.22,11.78s17.11,6.67,5.56,26l-33.11,61.64s-9.78,14.8-23.11,1.69l-71.11-45.11s-58.67,8.67-84.22-25.56c0,0-15.78-20-13.11-45.33h-.01Z" fill="#6c0007"/><path d="M543.23,443.92s-7.93-9.26,0-17.26,12.67-2.52,12.67-2.52l-12.67,19.78Z" fill="#6c0007"/></svg>