<?xml version="1.0" encoding="UTF-8"?><svg id="a" xmlns="http://www.w3.org/2000/svg" viewBox="0 0 600 750"><g id="b"><path d="M562.5,50h-148.95v25h148.95c6.9,0,12.5,5.62,12.5,12.5v625c0,6.87-5.6,12.5-12.5,12.5H37.5c-6.9,0-12.5-5.63-12.5-12.5V87.5c0-6.88,5.6-12.5,12.5-12.5h150v-25H37.5C16.82,50,0,66.83,0,87.5v625c0,20.67,16.82,37.5,37.5,37.5h525c20.67,0,37.5-16.83,37.5-37.5V87.5c0-20.67-16.83-37.5-37.5-37.5Z" fill="#6c0007"/><path d="M537.5,525c-6.9,0-12.5-5.6-12.5-12.5V125h-62.5c-6.9,0-12.5-5.6-12.5-12.5s5.6-12.5,12.5-12.5h75c6.9,0,12.5,5.6,12.5,12.5v400c0,6.9-5.6,12.5-12.5,12.5Z" fill="#6c0007"/><path d="M412.5,700H62.5c-6.9,0-12.5-5.6-12.5-12.5V112.5c0-6.9,5.6-12.5,12.5-12.5h75c6.9,0,12.5,5.6,12.5,12.5s-5.6,12.5-12.5,12.5h-62.5v550h337.5c6.9,0,12.5,5.6,12.5,12.5s-5.6,12.5-12.5,12.5Z" fill="#6c0007"/><path d="M412.5,700c-1.6,0-3.22-.33-4.77-.95-4.68-1.92-7.73-6.5-7.73-11.55v-125c0-6.9,5.6-12.5,12.5-12.5h125c5.05,0,9.63,3.05,11.55,7.73,1.95,4.68.87,10.05-2.7,13.63l-125,125c-2.4,2.37-5.6,3.65-8.85,3.65ZM425,575v82.32l82.32-82.32h-82.32Z" fill="#6c0007"/><g id="c"><path d="M141.32,425.4h-.27c-3.55-.08-6.9-1.65-9.2-4.35l-28.82-33.65c-4.5-5.22-3.9-13.12,1.35-17.62s13.15-3.85,17.62,1.38l19.78,23.05,39.75-42.32c4.73-5.03,12.63-5.28,17.67-.52s5.28,12.65.55,17.67l-49.3,52.47c-2.38,2.47-5.68,3.9-9.13,3.9Z" fill="#6c0007"/><path d="M141.32,300.4h-.27c-3.55-.08-6.9-1.65-9.2-4.35l-28.82-33.65c-4.5-5.22-3.9-13.12,1.35-17.62s13.15-3.85,17.62,1.38l19.78,23.05,39.75-42.32c4.73-5.03,12.63-5.28,17.67-.52s5.28,12.65.55,17.67l-49.3,52.47c-2.38,2.47-5.68,3.9-9.13,3.9Z" fill="#6c0007"/><path d="M337.5,550h-100c-6.9,0-12.5-5.6-12.5-12.5s5.6-12.5,12.5-12.5h100c6.9,0,12.5,5.6,12.5,12.5s-5.6,12.5-12.5,12.5Z" fill="#6c0007"/><path d="M462.5,500h-225c-6.9,0-12.5-5.6-12.5-12.5s5.6-12.5,12.5-12.5h225c6.9,0,12.5,5.6,12.5,12.5s-5.6,12.5-12.5,12.5Z" fill="#6c0007"/><path d="M462.5,375h-75c-6.9,0-12.5-5.6-12.5-12.5s5.6-12.5,12.5-12.5h75c6.9,0,12.5,5.6,12.5,12.5s-5.6,12.5-12.5,12.5Z" fill="#6c0007"/><path d="M412.5,425h-175c-6.9,0-12.5-5.6-12.5-12.5s5.6-12.5,12.5-12.5h175c6.9,0,12.5,5.6,12.5,12.5s-5.6,12.5-12.5,12.5Z" fill="#6c0007"/><path d="M337.5,375h-100c-6.9,0-12.5-5.6-12.5-12.5s5.6-12.5,12.5-12.5h100c6.9,0,12.5,5.6,12.5,12.5s-5.6,12.5-12.5,12.5Z" fill="#6c0007"/><path d="M462.5,250h-225c-6.9,0-12.5-5.6-12.5-12.5s5.6-12.5,12.5-12.5h225c6.9,0,12.5,5.6,12.5,12.5s-5.6,12.5-12.5,12.5Z" fill="#6c0007"/><path d="M362.5,300h-125c-6.9,0-12.5-5.6-12.5-12.5s5.6-12.5,12.5-12.5h125c6.9,0,12.5,5.6,12.5,12.5s-5.6,12.5-12.5,12.5Z" fill="#6c0007"/><path d="M162.5,550h-50c-6.9,0-12.5-5.6-12.5-12.5v-50c0-6.9,5.6-12.5,12.5-12.5h50c6.9,0,12.5,5.6,12.5,12.5v50c0,6.9-5.6,12.5-12.5,12.5ZM125,525h25v-25h-25v25Z" fill="#6c0007"/></g><path d="M412.5,150h-225c-6.9,0-12.5-5.6-12.5-12.5V62.5c0-20.67,16.83-37.5,37.5-37.5,6.9,0,12.5,5.6,12.5,12.5s-5.6,12.5-12.5,12.5-12.5,5.62-12.5,12.5v62.5h200v-62.5c0-6.88-5.6-12.5-12.5-12.5s-12.5-5.6-12.5-12.5,5.6-12.5,12.5-12.5c20.67,0,37.5,16.83,37.5,37.5v75c0,6.9-5.6,12.5-12.5,12.5Z" fill="#6c0007"/><path d="M337.5,50c-6.9,0-12.5-5.6-12.5-12.5s-5.6-12.5-12.5-12.5h-25c-2.7,0-5.28.82-7.4,2.43-3.25,2.37-5.1,6.05-5.1,10.07,0,6.9-5.6,12.5-12.5,12.5s-12.5-5.6-12.5-12.5c0-11.87,5.7-23.15,15.23-30.18,6.45-4.77,14.17-7.32,22.27-7.32h25c20.67,0,37.5,16.82,37.5,37.5,0,6.9-5.6,12.5-12.5,12.5Z" fill="#6c0007"/></g></svg>