<?xml version="1.0" encoding="UTF-8"?><svg id="a" xmlns="http://www.w3.org/2000/svg" viewBox="0 0 881.13 821.05"><path d="M556.09,565.78h.08s-.07-.01-.07-.01v-2.26c-.6-10.86-6.15-38.92-46.81-44.59h-2.07s-45.85-1.16-48.89,48.89v-.02s.36,45.73,48.87,48.89c50.48-3.57,48.91-50.28,48.89-50.9ZM512.62,600.88c-18.28,2.97-35.5-9.45-38.47-27.72-2.97-18.28,9.45-35.5,27.72-38.47,18.28-2.97,35.5,9.45,38.47,27.72,2.97,18.28-9.45,35.5-27.72,38.47Z" fill="none"/><path d="M574.1,496.37l125.56,13.27s.55-.71.87-2.22c-7.34-24.43-24.35-65.01-61.2-94.15h0s-53.15-50.66-132.11-49.25c-72-.96-121.73,40.85-121.73,40.85v-.02c-49.58,37.79-66.47,86.38-69.38,95.81-.21,4.49-.11,9.29,1.33,8.97l122.22-12s52.22-42.15,134.44-1.26Z" fill="none"/><path d="M588.09,629.04s-44.52,47.63-40.37,123.78c0,0,.14,5.75,3.11,8.71,50.29-11.85,83-38.63,83.17-38.78h-.01c58.2-45.79,72.55-105.51,74.58-146.57,0,0-66.7-10.25-120.48,52.86Z" fill="none"/><path d="M392.61,732.42c3.57,2.49,31.7,21.45,68.41,29.83,3.09-1.82,5.96-4.72,5.53-9.14,0,0,1.33-91.79-52.67-136.41l4.43.09v-.1h-4.43s-32.22-43.22-105.78-40.33c0,0-.62-1.25-2.24,1.86,3.13,46.64,21.29,78.7,21.29,78.7h0c.16.35,21.59,43.82,65.45,75.5Z" fill="none"/><path d="M249,80.74l32.89,30.22-30.22,31.56,56.44,55.56,27.56-27.56h34.22s-15.11,53.33-16.44,78.22c0,0,5.33,14.67,16.44,0v-2.22s29.32-55.11,38.21-68l14.67,12.44s8.44,5.19,16-7.85l16-18.81s3.56-7.56-4.89-16l-101.33-100.89s-29.78-27.11-70.22-8l-32,24s-8,10.67,2.67,17.33Z" fill="#6c0007"/><path d="M302.03,212.88h0s-65.33-63.99-65.33-63.99h-.02c-14.66-10.66-29.33,0-29.33,0l-91.11,54.22c-26.66,9.33-41.33,28.89-41.33,28.89l-62.22,62.22c-21.33,16.89-9.33,37.33-9.33,37.33l111.12,113.34c20.89,14.22,39.11-1.78,39.11-1.78l64-65.33c18.22-12.45,24-30.67,24-30.67,0,0,48.88-86.67,60.44-102.67s0-31.56,0-31.56Z" fill="#6c0007"/><path d="M468.25,200.45l201.78,154.67s21.78,9.78,8.89-9.33-200.89-154.22-200.89-154.22c0,0-16-8-9.78,8.89h0Z" fill="#6c0007"/><path d="M624.37,184.85c.31.03.48.04.48.04-.16-.02-.32-.02-.48-.04Z" fill="#6c0007"/><path d="M540.26,184.89c.11,0,.21.02.31.02-.19-.02-.31-.02-.31-.02Z" fill="#6c0007"/><path d="M582.92,226.67s5.15-44.92,41.45-41.82c-4.34-.38-37.18-4.49-41.82-40.93,0,0-6.27,44.25-41.99,40.99,3.53.3,38.13,4.22,42.36,41.76Z" fill="#6c0007"/><path d="M704.11,159.55c15.85-80.44,79.26-77.33,79.26-77.33C707.37,73.78,704.7,0,704.7,0c-8.31,75.22-77.58,82.03-79.8,82.23,78.76,7.57,79.21,77.31,79.21,77.32Z" fill="#6c0007"/><polygon points="704.11 159.55 704.11 159.55 704.11 159.55 704.11 159.55" fill="#6c0007"/><polygon points="816.69 156.44 816.69 156.44 816.69 156.44 816.69 156.44" fill="#6c0007"/><path d="M816.69,156.44c-10.22,65.78-66.22,67.56-66.22,67.56h-.01c63.11,13.77,68,64.44,68,64.44,9.34-57.77,62.67-64.44,62.67-64.44-56.88-6.23-64.44-67.55-64.44-67.56Z" fill="#6c0007"/><circle cx="507.25" cy="567.78" r="33.53" transform="translate(-252.91 524.98) rotate(-45)" fill="#6c0007"/><path d="M757.35,517.71c-16.95-96.62-91.42-151.11-91.72-151.33-55.43-44.42-116.75-53.29-144-54.95-27.08-38.55-66.12-89.64-66.12-89.64,0,0-11.26-9.33-10.37,4.89l58.53,84.37c-16.15-.05-84.68,2.84-150.86,52.22v-.02s-62.4,43.53-88.18,124.81c0,0-34.04,94.66,11.38,184.63l51.14-15.77h0s0,0,0,0c0,0-18.16-32.06-21.29-78.7,1.62-3.11,2.24-1.86,2.24-1.86,73.56-2.89,105.78,40.33,105.78,40.33h4.43v.1l-4.43-.09c54,44.62,52.67,136.41,52.67,136.41.43,4.42-2.44,7.32-5.53,9.14-36.71-8.38-64.84-27.34-68.41-29.83-43.86-31.68-65.29-75.15-65.45-75.49l-51.14,15.77c62.42,128.98,182.31,143.06,182.31,143.06,0,0,105.5,29.5,207.64-50.83.28-.2,122.67-87.18,91.38-247.22h0ZM317.44,509.63c-1.44.32-1.54-4.48-1.33-8.97,2.91-9.43,19.8-58.02,69.37-95.81v.02s49.74-41.81,121.74-40.85c78.96-1.41,132.11,49.26,132.11,49.26h0c36.85,29.13,53.86,69.71,61.2,94.14-.32,1.51-.87,2.22-.87,2.22l-125.56-13.27c-82.22-40.89-134.44,1.26-134.44,1.26l-122.22,12ZM507.2,616.68c-48.51-3.16-48.88-48.89-48.88-48.89v.02c3.05-50.05,48.9-48.89,48.9-48.89h2.07c40.66,5.67,46.21,33.73,46.81,44.59v2.26h.07-.08c.02.63,1.59,47.34-48.89,50.91ZM633.99,722.75h.01c-.17.15-32.88,26.93-83.17,38.78-2.97-2.96-3.11-8.71-3.11-8.71-4.15-76.15,40.37-123.78,40.37-123.78,53.78-63.11,120.48-52.86,120.48-52.86-2.03,41.06-16.38,100.78-74.58,146.57Z" fill="#6c0007"/><line x1="327.15" y1="656.92" x2="327.16" y2="656.93" fill="none" stroke="#6c0007" stroke-linecap="round" stroke-linejoin="round"/><line x1="327.15" y1="656.92" x2="327.15" y2="656.92" fill="none" stroke="#6c0007" stroke-linecap="round" stroke-linejoin="round"/></svg>