<?xml version="1.0" encoding="UTF-8"?><svg id="a" xmlns="http://www.w3.org/2000/svg" viewBox="0 0 669.62 716.67"><path d="M334.81,25v533.33M334.81,691.67v-133.33M334.81,558.33l100,100M334.81,558.33l-100,100M434.81,58.33l-100,100-100-100" fill="none" stroke="#6c0007" stroke-linecap="round" stroke-miterlimit="133.33" stroke-width="50"/><path d="M46.14,191.68l115.47,66.67M161.61,258.35l346.41,200M161.61,258.35l-36.6-136.6M161.61,258.35l-136.6,36.6M508.02,458.35l115.47,66.67M508.02,458.35l136.6-36.6M508.02,458.35l36.6,136.6" fill="none" stroke="#6c0007" stroke-linecap="round" stroke-miterlimit="133.33" stroke-width="50"/><path d="M623.48,191.68l-115.47,66.67M508.01,258.35l-346.41,200M508.01,258.35l36.6-136.6M508.01,258.35l136.6,36.6M161.6,458.35l-115.47,66.67M161.6,458.35l-136.6-36.6M161.6,458.35l-36.6,136.6" fill="none" stroke="#6c0007" stroke-linecap="round" stroke-miterlimit="133.33" stroke-width="50"/></svg>