<?xml version="1.0" encoding="UTF-8"?><svg id="a" xmlns="http://www.w3.org/2000/svg" viewBox="0 0 987.27 922"><path d="M343.45,496.76v-.3s-.03,0-.03,0c-1.96-39.17-38.22-43.56-38.22-43.56h-172.44c-48,3.55-45.93,47.11-45.93,47.11h0c3.55,40.9,37.33,45.64,37.33,45.64h178.96c38.43-9.73,40.53-39.4,40.4-47.26l-.1-1.93s.01.11.03.3Z" fill="none"/><path d="M813.34,310.1v-143.41s-1.19-91.26-103.7-102.52h-353.19s-20.74,1.19-43.26,31.41l-144,210.37h0s-14.81,27.56,10.07,34.96h608s26.07-3.56,26.07-30.81Z" fill="none"/><path d="M549.94,611.73s-11.11,15.56,15.56,15.11c22.32-.38,17.56-.12,15.41-.03,2.81-.04,11.99.7-2.96,13.35,0,0-107.1,129.77-113.78,156.89,62.23-40.47,188.13-192.14,188.13-192.14,19.26-25.18-21.33-16.74-21.33-16.74-16,2.81-15.7,0-15.7,0,66.67-61.33,108-152.44,108-152.44,0,0-146.67,127.11-173.33,176Z" fill="none"/><path d="M986.97,529.73h0s.3-98.96.3-98.96c0,0-4.74-85.47-91.55-89.85h0s11.26-160.3,0-249.19S799.12.47,799.12.47h-469.93c-27.26-4.15-50.37,20.74-50.37,20.74L96.89,277.21h0C30.98,358.09,5.05,426.09,5.05,426.09l152.88-16.74h0s57.48,2.38,57.48,2.38l178.68-3.44h0s-178.66,3.45-178.66,3.45l-57.48-2.37-65.78,7.2-87.11,9.54h0s-6.52,21.18-4.74,68.58l-.31,337.78s8.01,91.85,98.68,89.48l266.07.05-21.23-423.6c.14,7.86-1.97,37.52-40.4,47.26H124.16s-33.78-4.74-37.33-45.63h0s-2.07-43.57,45.93-47.12h172.44s36.26,4.39,38.22,43.56h.01s.01.3.01.3c-.01-.19-.03-.3-.03-.3l.1,1.93c0-.14,0-.27,0-.4l21.25,423.98h100.72s179.56.01,179.56.01l33.78-240.49s84.89-131.11,92-135.56c0,0,5.22-7.11-3.33-9.33,0,0-13.44-5.11-2-17.11,0,0,105.71-117.43,130.73-123.17h.08s.01-.01.01-.01c0,0-36,69.59-81.93,112.56,0,0-3.11,1.78,9.33,1.48s25.48,4.89,10.07,23.26c0,0-108.22,115.33-154.96,147.89l-33.78,240.49,38.59-53.71s106.22-151.11,127.11-169.78c0,0-42.22,3.67-49.67,2.11,0,0-15.22,1.44,8.67-24,0,0,125.37-135.33,153.81-149.56h.02s-41.71,82.53-84.59,122.96c0,0-2.22,4.67,16.44,3.56,0,0,17.62-.44,25.81,1.56,0,0,23.3-.67-.92,23.78,0,0-95.78,118.3-196.67,189.37l-38.59,53.71h255.48s80.15-7.53,86.74-86.64l-.3-305.63ZM179.27,340.91c-24.88-7.4-10.07-34.96-10.07-34.96h0s144-210.37,144-210.37c22.52-30.22,43.26-31.41,43.26-31.41h353.19c102.51,11.26,103.7,102.52,103.7,102.52v143.41c0,27.25-26.07,30.81-26.07,30.81H179.27ZM615.27,588.17s-.3,2.81,15.7,0c0,0,40.59-8.44,21.33,16.74,0,0-125.9,151.67-188.13,192.14,6.68-27.12,113.78-156.89,113.78-156.89,14.95-12.65,5.77-13.39,2.96-13.35,2.15-.09,6.91-.35-15.41.03-26.67.45-15.56-15.11-15.56-15.11,26.66-48.89,173.33-176,173.33-176,0,0-41.33,91.11-108,152.44Z" fill="#6c0007"/></svg>