<?xml version="1.0" encoding="UTF-8"?><svg id="a" xmlns="http://www.w3.org/2000/svg" viewBox="0 0 878.02 878.02"><circle cx="439.01" cy="439.01" r="423.51" fill="none" stroke="#6c0007" stroke-miterlimit="10" stroke-width="31"/><circle cx="439.01" cy="439.01" r="242.99" fill="none" stroke="#6c0007" stroke-miterlimit="10" stroke-width="31"/><circle cx="439.01" cy="439.01" r="90.4" fill="none" stroke="#6c0007" stroke-miterlimit="10" stroke-width="31"/><circle cx="439.01" cy="439.01" r="32.75" fill="none" stroke="#6c0007" stroke-miterlimit="10" stroke-width="31"/><line x1="158.32" y1="120.32" x2="208.99" y2="362.99" fill="none" stroke="#6c0007" stroke-miterlimit="10" stroke-width="31"/><line x1="401.88" y1="16.32" x2="295.21" y2="244.77" fill="none" stroke="#6c0007" stroke-miterlimit="10" stroke-width="31"/><line x1="656.1" y1="74.1" x2="439.01" y2="196.02" fill="none" stroke="#6c0007" stroke-miterlimit="10" stroke-width="31"/><line x1="827.65" y1="267.88" x2="582.02" y2="242.54" fill="none" stroke="#6c0007" stroke-miterlimit="10" stroke-width="31"/><line x1="852.85" y1="529.41" x2="667.65" y2="362.99" fill="none" stroke="#6c0007" stroke-miterlimit="10" stroke-width="31"/><line x1="720.1" y1="759.43" x2="672.1" y2="517.65" fill="none" stroke="#6c0007" stroke-miterlimit="10" stroke-width="31"/><line x1="480.99" y1="862.53" x2="586.76" y2="630.54" fill="none" stroke="#6c0007" stroke-miterlimit="10" stroke-width="31"/><line x1="224.1" y1="805.65" x2="439.01" y2="682.01" fill="none" stroke="#6c0007" stroke-miterlimit="10" stroke-width="31"/><line x1="52.54" y1="610.99" x2="292.54" y2="634.1" fill="none" stroke="#6c0007" stroke-miterlimit="10" stroke-width="31"/><line x1="25.17" y1="348.62" x2="205.43" y2="507.88" fill="none" stroke="#6c0007" stroke-miterlimit="10" stroke-width="31"/><rect x="276.04" y="305.75" width="93.44" height="33.31" rx="15" ry="15" transform="translate(-133.44 322.65) rotate(-45)" fill="#6c0007" stroke="#6c0007" stroke-miterlimit="10"/><rect x="276.04" y="305.75" width="93.44" height="33.31" rx="15" ry="15" transform="translate(-133.44 322.65) rotate(-45)" fill="none" stroke="#6c0007" stroke-miterlimit="10" stroke-width="1"/><rect x="305.42" y="511.92" width="33.31" height="93.44" rx="15" ry="15" transform="translate(-300.68 391.36) rotate(-45)" fill="#6c0007" stroke="#6c0007" stroke-miterlimit="10"/><rect x="305.42" y="511.92" width="33.31" height="93.44" rx="15" ry="15" transform="translate(-300.68 391.36) rotate(-45)" fill="none" stroke="#6c0007" stroke-miterlimit="10" stroke-width="1"/><rect x="541.85" y="275.49" width="33.31" height="93.44" rx="15" ry="15" transform="translate(-64.26 489.3) rotate(-45)" fill="#6c0007" stroke="#6c0007" stroke-miterlimit="10"/><rect x="541.85" y="275.49" width="33.31" height="93.44" rx="15" ry="15" transform="translate(-64.26 489.3) rotate(-45)" fill="none" stroke="#6c0007" stroke-miterlimit="10" stroke-width="1"/><rect x="511.78" y="541.48" width="93.44" height="33.31" rx="15" ry="15" transform="translate(-231.08 558.4) rotate(-45)" fill="#6c0007" stroke="#6c0007" stroke-miterlimit="10"/><rect x="511.78" y="541.48" width="93.44" height="33.31" rx="15" ry="15" transform="translate(-231.08 558.4) rotate(-45)" fill="none" stroke="#6c0007" stroke-miterlimit="10" stroke-width="1"/><rect x="257.59" y="392.29" width="33.31" height="93.44" rx="15" ry="15" fill="#6c0007" stroke="#6c0007" stroke-miterlimit="10"/><rect x="257.59" y="392.29" width="33.31" height="93.44" rx="15" ry="15" fill="none" stroke="#6c0007" stroke-miterlimit="10"/><rect x="590.33" y="392.29" width="33.31" height="93.44" rx="15" ry="15" stroke="#6c0007" stroke-miterlimit="10"/><rect x="590.33" y="392.29" width="33.31" height="93.44" rx="15" ry="15" fill="#6c0007" stroke="#6c0007" stroke-miterlimit="10"/><rect x="392.29" y="589.25" width="93.44" height="33.31" rx="15" ry="15" fill="#6c0007" stroke="#6c0007" stroke-miterlimit="10"/><rect x="392.29" y="589.25" width="93.44" height="33.31" rx="15" ry="15" fill="none" stroke="#6c0007" stroke-miterlimit="10"/><rect x="392.29" y="257.99" width="93.44" height="33.31" rx="15" ry="15" fill="#6c0007" stroke="#6c0007" stroke-miterlimit="10"/><rect x="392.29" y="257.99" width="93.44" height="33.31" rx="15" ry="15" fill="none" stroke="#6c0007" stroke-miterlimit="10"/></svg>