<?xml version="1.0" encoding="UTF-8"?><svg id="a" xmlns="http://www.w3.org/2000/svg" viewBox="0 0 880.3 948.49"><path d="M427.07,110.55l-288.44-.44h-27.12v244.44l578.67.89-182.67-210.67s-28.89-38.67-80.44-34.22Z" fill="none"/><rect x="392.79" y="748.34" width="91.11" height="217.07" rx="12" ry="12" transform="translate(-520.61 774.53) rotate(-58)" fill="#6c0007"/><path d="M750.92,702.96c.08-.11,14.35-20.55-4.85-34.73-19.26-14.22-37.52,0-37.52,0h0s-74.37,64-74.37,64c0,0-9.63,5.93-6.37-4.59s99.26-161.48,99.26-161.48h0c.05-.11,9.4-20.77-9.22-30.52-18.67-9.78-30.78,5.33-30.78,5.33h0s-65.63,109.04-65.63,109.04c0,0-6.37,4.15-5.48-3.56.89-7.7,83.65-139.75,83.85-140.06h0s7.82-16.96-10.41-28.67c-18.23-11.71-30.04,4.44-30.04,4.44h0s-83.56,139.33-83.56,139.33c0,0-6.67,4.22-5.56-4l84.22-139.78h0s9.3-21.33-15-29.33c-16.51-5.44-25.44,5.11-25.44,5.11l16.22,9.71-16.22-9.71-85.33,144.67s-6.89,2.89-5.11-4.44l64.44-107.56-36.67-17.3-118.67,195.3s-24.44,42.22-26.67,72.44c0,0-4.67,15.33-13.56,29.56h0l149.04,90.73,10.37-10.73s11.41-10.22,27.26-10.52c0,0,12.74-1.78,37.78-18.37l134-114.3h0Z" fill="#6c0007"/><path d="M551.37,468.85l36.67,17.29s3.89-13.63-11.37-20.59-25.3,3.3-25.3,3.3Z" fill="#6c0007"/><path d="M399.86,639.18s5.78-74.26,80.59-80.15c0,0-70.07,1.78-80.59-80.15h-.01s2.37,71.12-80.59,81.49c0,0,71.48-2,80.6,78.81Z" fill="#6c0007"/><polygon points="340.3 761.38 340.28 761.41 340.29 761.41 340.3 761.38" fill="#6c0007"/><path d="M880,468.84s-1.48-56.48-33.78-95.89l-121.19-141.04-105.19-122.07-45.33-49.48s-34.96-43.26-114.07-53.93c0,0-60.15-8.3-103.7-5.93L20.15.07S-.59-2.47.3,22.72l-.03,130.07.03,183.11-.3,196.44.3,211.26s-2.96,56,65.78,56.59h247.7l26.5-38.78H60.44s-22.22-1.78-21.93-24.89V38.44l373.93.59s40-2.07,74.67,10.37,60.15,35.26,60.15,35.26l106.96,121.48,114.96,133.33,47.11,56.3s22.81,24.67,27.26,73.07v267.07s-2.37,24.59-26.07,25.48-93.63,0-93.63,0l-43.56,38.81h144.3s50.37-6.52,54.52-56.59l1.19-170.07-.3-104.7Z" fill="#6c0007"/><path d="M129.74,444.48s-23.11,2.37-22.81,27.56c.3,25.19,22.81,27.56,22.81,27.56h0s118.51-1.49,118.51-1.49c0,0,23.4.01,22.81-26.07-.59-26.08-22.81-27.56-22.81-27.56h-118.51Z" fill="#6c0007"/><path d="M744.86,359.44l-215.56-244.89c-33.78-40.89-100.89-42.22-100.89-42.22H90.63c-19.56,1.34-16.89,17.78-16.89,17.78v278.22c-.45,22.67,17.33,23.11,17.33,23.11h643.12c29.34-5.78,10.67-32,10.67-32ZM111.51,354.55V110.11h27.12l288.44.44c51.55-4.45,80.44,34.22,80.44,34.22l182.67,210.67-578.67-.89Z" fill="#6c0007"/></svg>