<?xml version="1.0" encoding="UTF-8"?><svg id="a" xmlns="http://www.w3.org/2000/svg" viewBox="0 0 1121.87 879.3"><path d="M659.35,720.78s0,0-.02-.01c-.42,0-358.67,1.04-376.44,1.04-14.75,0-15.99,11.77-15.98,15.78,0,.33.02.64.03.95,0,.05,0,.1,0,.15l.02.24s0-.09-.02-.24v-.1c0,.11,0,.22,0,.33.3,15.41,15.41,17.78,15.41,17.78l53.93-.59s.3,40.89,1.19,53.93,13.04,16.89,13.04,16.89h0s308.37.52,308.37.52l1.3,50-1.29-49.98,8.89.22s14.67-4.22,13.78-17.56-6-17.78-20.22-16.89c-.75.05-1.4-.04-2.01-.19v.15s-296.82-2.67-308.82,0c-11.47,2.55-12.92,15.6-13.02,16.76v.09s0,0,0,0c0,0,0-.04,0-.09l-1.19-53.84,322.81.22v.04s.01-.03.01-.03c0,0,21.78,1.33,22.89-17.56s-20.89-18-22.67-18Z" fill="none"/><path d="M262.53,684.4l396.81.15v.22c0-.12.01-.21.01-.21,0,0,23.33,2,21.33-17.78,0,0,1.31-14.32-13.57-18.61-.01,0-.02-.01-.03-.02l-.14.98-412.44.3s-32.3-.59-39.11-.3-15.11,2.66-14.81,17.48,13.93,17.78,13.93,17.78h48s.03.29.09.82l-.07-.81Z" fill="none"/><path d="M856.45,527.45c19.33-9.56,6.44-24.37,6.44-24.37-14.22-35.93-40.44-44.33-40.44-44.33l-61.78.03c-17.11-.89-18.67,16.44-18.67,16.44v27.85h-54.58s-.03.13-.09.38l.05-.39-.59-21.04s.89-3.83-7.11-11.25-104-105.49-104-105.49c0,0-4.74-8.3-25.48-8-20.55.3-90.55,0-91.82,0v-36.13h-79.41v36.13h-.03.03s-86.52.01-86.52.01c0,0-7.41-2.07-21.04,14.22l-77.63,77.63-69.04,1.19s-12.74.89-16,12.44v68.74h-40.89v-66.07h.01c-4.14-13.68-16.6-15.22-16.6-15.22,0,0-14.07-.15-32.15,0C1.03,450.37,0,465.44,0,465.44h0v210.07h66.96l.3-65.19,40.89.3v113.48s1.19,12.44,15.41,13.93h71.11l135.41,133.33s8.89,8,22.22,7.41h0s307.93.04,307.93.04h0s7.56,1.09,39.56.01,35.33-28.7,35.33-28.7l.67-92.89h30.22l-.22-75.78c-2.45-35.34,17.33-73.56,17.33-73.56,15.77-46,73.33-80.44,73.33-80.44ZM214.51,684.39s-13.63-2.96-13.93-17.78,8-17.19,14.81-17.48,39.11.3,39.11.3l412.44-.3.14-.98s.02.01.03.02c14.88,4.29,13.57,18.61,13.57,18.61,2,19.78-21.33,17.78-21.33,17.78,0,0,0,.09-.01.21v-.22l-396.81-.15.07.81c-.06-.53-.09-.82-.09-.82h-48ZM682.02,738.78c-1.11,18.89-22.89,17.56-22.89,17.56,0,0,0,.03,0,.03v-.04s-322.81-.22-322.81-.22l1.19,53.84c.11-1.16,1.56-14.21,13.02-16.76,12-2.67,308.82,0,308.82,0v-.15c.61.16,1.26.24,2.01.19,14.22-.89,19.33,3.55,20.22,16.89s-13.78,17.56-13.78,17.56l-8.89-.22,1.29,49.98-1.3-50-308.37-.52h0s-12.15-3.85-13.04-16.89-1.19-53.93-1.19-53.93l-53.93.59s-15.11-2.37-15.41-17.78c0-.11,0-.22,0-.33v.1s0-.09,0-.15c0-.31-.02-.62-.03-.95,0-4.01,1.23-15.78,15.98-15.78,17.77,0,376.01-1.04,376.44-1.04,0,0,0,.01.02.01,1.78,0,23.78-.89,22.67,18Z" fill="#6c0007"/><path d="M266.95,738.68c.01.15.02.24.02.24l-.02-.24Z" fill="#6c0007"/><path d="M337.5,810.04v-.09c0,.05-.01.09-.01.09h.01Z" fill="#6c0007"/><path d="M17.04,691.93h31.7c13.78.89,18.23-16.41,18.23-16.41H.01s.59,15.22,17.03,16.41Z" fill="#6c0007"/><path d="M288.89,321.15c.92.11,1.75.1,2.5-.01h257.06s15.78-4.47,15.48-23.88c-.37-24.04-15.48-22.93-15.48-22.93h-259.56s-18.15,1.45-17.26,22.49c0,0-1.91,21.99,17.26,24.33Z" fill="#6c0007"/><path d="M1121.87,661.41s-6.39-43.85-28.91-75.56c0,0-68.15-131.26-70.81-152l-91.11-1.04h0s-.44,106.68-63.56,141.79c0,0-53.33,27.26-57.78,105.48l-.3,170.67s.89,28.05,37.04,28.54h241.48s36.74-.1,33.78-35.36l.17-182.52Z" fill="#6c0007"/><path d="M928.15,406.44h88.89c18.22,0,16.93-16.44,16.93-16.44l-.04-26c.89-15.11-11.78-16.44-11.78-16.44h-96.89c-14.23,0-11.54,14.44-11.54,14.44l.43,26.44c-3.33,17.11,14,18,14,18Z" fill="#6c0007"/><path d="M846.44,267.26h0c-1.48,51.57-55.7,120.31-55.7,120.31-11.26,21.63,13.04,16.59,13.04,16.59,38.23-16,69.93-73.78,69.93-73.78,2.07-14.22,18.37-28.15,18.37-28.15,15.71-7.41,11.56-9.19,11.56-9.19-8.3-26.08-57.19-25.78-57.19-25.78Z" fill="#6c0007"/><path d="M938.59,320.89h77.04s1.19-42.96,48.89-45.33c0,0,42.67-14.22,5.04-47.11-37.63-32.89-49.48-45.63-103.41-46.52l-124.44,3.85h-.01s0,53.33,0,53.33c0,0,100.74-5.93,96.89,81.78Z" fill="#6c0007"/><path d="M789.25,238.23h24.3v-51.26h-.01s-10.66-.3-25.79,0-15.69,13.93-15.69,13.93v18.37c3.86,19.85,17.19,18.96,17.19,18.96Z" fill="#6c0007"/><circle cx="447.92" cy="100.15" r="24.89" fill="#6c0007"/><circle cx="498" cy="177.78" r="21.63" fill="#6c0007"/><circle cx="535.04" cy="111.71" r="18.67" fill="#6c0007"/><circle cx="597.55" cy="52.75" r="18.96" fill="#6c0007"/><circle cx="500.66" cy="18.37" r="18.37" fill="#6c0007"/><circle cx="599.33" cy="193.78" r="25.78" fill="#6c0007"/><circle cx="633.11" cy="278.52" r="18.37" fill="#6c0007"/><circle cx="683.48" cy="239.71" r="17.48" fill="#6c0007"/><circle cx="727.92" cy="197.04" r="16.89" fill="#6c0007"/><circle cx="683.48" cy="153.78" r="17.19" fill="#6c0007"/><circle cx="636.66" cy="116.15" r="17.78" fill="#6c0007"/></svg>