<?xml version="1.0" encoding="UTF-8"?><svg id="a" xmlns="http://www.w3.org/2000/svg" viewBox="0 0 937.78 812.45"><polygon points="232.89 0 0 407.11 232.89 812.45 704.89 812.45 686.23 785.78 251.56 784.89 32.89 406.22 250.67 24.89 232.89 0" fill="#6c0007"/><polygon points="702.23 0 232.89 0 250.67 24.89 689.78 24.89 702.23 0" fill="#6c0007"/><polygon points="704.89 812.45 937.78 406.22 907.56 406.22 686.23 785.78 704.89 812.45" fill="#6c0007"/><polygon points="702.23 0 937.78 406.22 907.56 406.22 689.78 24.89 702.23 0" fill="#6c0007"/><circle cx="467.56" cy="406.22" r="174.22" fill="none" stroke="red" stroke-miterlimit="10"/><circle cx="467.56" cy="406.22" r="154.22" fill="none" stroke="red" stroke-miterlimit="10"/><circle cx="467.56" cy="406.22" r="210.22" fill="none" stroke="red" stroke-miterlimit="10"/><circle cx="467.56" cy="406.22" r="235.56" fill="none" stroke="red" stroke-miterlimit="10"/><path d="M470.23,196s-85.06-9.78-158.75,69.4c-73.69,79.18-50.62,179.28-50.62,179.28l-25.28,2.58s-23.91-99.25,50.48-191.18,184.17-85.4,184.17-85.4v25.32h0Z" fill="#6c0007"/><path d="M470.23,196s109.26-6.91,177.96,102.62c0,0,49.85,77.55,21.05,167.09l25.03,4.67s29.32-72.89-14.25-166.01-140.3-122.45-140.3-122.45c0,0-31.27-10.49-69.5-11.24v25.32h0Z" fill="#6c0007"/><path d="M260.85,444.69s7.33,72.1,80.35,129.56,162.55,39.09,162.55,39.09l4.45,24.94s-108.25,24.44-197.34-56.18c0,0-59.29-46.4-75.3-134.84l25.28-2.58h.01Z" fill="#6c0007"/><path d="M669.24,465.72s-13.37,55.73-60.41,96.19c0,0-47.56,45.07-105.08,51.43l4.45,24.94s139.15-13.52,186.07-167.9l-25.03-4.67h0Z" fill="#6c0007"/><path d="M470.23,252s-66.84-3.66-115.05,48.61c-48.21,52.27-41.74,110.98-41.74,110.98h-20.1s-7.29-58.66,40.95-117.57,118.44-61.39,118.44-61.39l17.5,19.37h0Z" fill="#6c0007"/><path d="M470.23,252s67.22-2.51,114.43,53.86,36.14,117.85,36.14,117.85h20.12s12.81-72.4-41.9-131.83-116.62-59.25-116.62-59.25c0,0-22.58-2.48-29.67,0s17.5,19.37,17.5,19.37h0Z" fill="#6c0007"/><path d="M313.44,411.6s-1.71,85.96,83.24,131.63c84.95,45.67,161.17-11.97,161.17-11.97l13.73,14.74s-54.42,45.54-129.07,32.66-104.73-56.21-104.73-56.21c0,0-40.29-41.48-44.44-110.85h20.1Z" fill="#6c0007"/><path d="M620.79,423.71s-3.61,66.79-62.94,107.54l13.73,14.74s61.06-37.68,69.33-122.28h-20.12Z" fill="#6c0007"/><path d="M519.12,24.89s.44,112,128.44,102.67c0,0,13.33-5.78,12.44,13.78s53.43,115.75,151.16,96.1l14.27,24.99s-146.32,27.36-185.88-97.98c0,0,4-11.11-13.33-9.78s-119.56,5.33-135.56-129.78h28.46Z" fill="#b95e00"/><path d="M121.95,560.45s83.68-22.67,109.02,51.56c0,0-1.33,10.67,14.22,6.67,0,0,70.67-11.56,113.78,61.78,0,0,.95,7.56,12.92,7.11,11.97-.45,93.3-19.97,104.86,97.79h-28.89s1.78-92.9-93.78-68.02c0,0-7.11,6.67-10.22-10.22s-54.67-76.44-120.44-61.78c0,0-16,3.11-12.89-15.56s-48.03-57.93-74.01-44.12l-14.56-25.21h0Z" fill="#b95e00"/></svg>