<?xml version="1.0" encoding="UTF-8"?><svg id="a" xmlns="http://www.w3.org/2000/svg" viewBox="0 0 951.2 776.87"><polygon points="728.09 121.34 727.12 121.69 781.92 119.74 728.09 121.34" fill="none"/><path d="M509.42,520.45h0c-.21-.37-.38-.73-.54-1.08-.9,7.32-7.15,45.61-42.35,79.6-39.11,37.77-92.89,41.78-92.89,41.78,0,0-50.89,9.63-92.44-33.33h0c-14.66-12.45-26.22-45.78-26.22-45.78,0,0-16.88-64.44,21.78-119.11,38.66-54.67,92.44-65.41,92.44-65.41,79.94-18.95,119.26,33.91,120.18,35.16l-3.76-44.42h.02s-47.11-39.11-126.22-18.67c-79.11,20.44-117.78,96-117.78,96,0,0-11.7,18.07-11.41,26.81l-.88-.15.88.16s-18.96,56.14.59,108.36,62.81,72.97,62.81,72.97c0,0,49.78,32.59,123.85,5.93s94.81-74.67,94.81-74.67c0,0,13.63-24.89,17.78-38.52,0,0-11.22-8.74-20.65-25.63Z" fill="none"/><path d="M466.76,482.67c.11-.13,5.95-6.77,1.55-18.21-4.44-11.55-19.09-6.29-19.09-6.29v-.02s-132.91,111.05-132.91,111.05h0s-7.78,13.93,3.78,21.04c11.56,7.11,23.11-3.11,23.11-3.11l29.78-24.89h0s30.67-25.78,30.67-25.78l17.78,17.33h-.01s-21.56,16.89-24,20.89h0s-4.89,11.11,3.56,16.44c8.45,5.33,14.22,3.11,14.22,3.11,0,0,6.67-4.89,12.89-8.89s29.33-24.89,29.33-24.89c0,0,5.78-8,.89-17.78s-17.78-4.89-17.78-4.89l-19.11,16-17.78-17.33,63.11-53.78h0Z" fill="none"/><polygon points="489.39 412.33 489.39 412.33 489.39 412.33 489.39 412.33" fill="none"/><path d="M950.36,443.11l-31.56-346.67C909.91.44,818.8,0,818.8,0l-255.11,21.33c-121.33.88-105.33,112.44-105.33,112.44l5.41,53.78s-156.45,44.45-227.56,90.67c0,0-79.11,37.34-127.11,114.67,0,0-89.77,181.33-100.44,247.11,0,0-38.31,96.43,46.18,117.99,0,0,22.27,12.68,145.82,17.12s359.99,0,438.22-8,174.23-44.45,194.67-162.67l-1.62-.06,1.49-5.34s1.48-3.26,8.89-1.78,12.15-10.67,12.15-10.67c0,0,1.19-17.19-3.26-30.22s5.04-60.15,5.04-60.15c0,0,19.85-52.74,20.44-71.41s4.44-63.7-1.19-87.41l-27.56-175.41h0c-.17-.4-9.58-23.05-29.4-18.65-19.8,4.4-20.07,25.92-20.07,26.35h0s0,0,0,0c0,0,0,.02,0,.02h0l12.74,95.98s-2.37,12.44-8.89,1.19v-7.7l-5.04-53.04-11.85-86.5h0s-2.22-22.52-30.89-23.19c-28.42-.66-27.5,24.8-27.48,25.24h0s2.96,52.15,5.33,58.37c2.37,6.22,4.74,40.3,4.74,40.3l5.04,43.85s-2.37,8.3-8,1.48l-1.78-18.07-4.74-52.74-8.59-82.37-2.67-17.19h0c-.11-.42-8.05-30.16-37.84-24.42-29.63,5.71-26.52,32.35-26.44,33.01h0s0,.02,0,.02h0s0,0,0,0l7.11,62.5,13.04,106.07s-1.78,12.44-7.41.89c0,0-9.19-78.81-9.19-79.7s-7.35-63.22-7.41-63.69h0s-10.81-25.78-34.81-23.11c-23.79,2.65-25.3,29.43-25.33,29.91h-.02s14.52,120.59,14.52,120.59l10.67,93.33,1.19,6.52s-.3,9.19-4.44,1.78c-4.14-7.41-21.63-45.63-21.63-45.63,0,0-15.11-29.93-18.37-32.89-.07-.07-.17-.11-.27-.15-2.06-1.24-14.98-8.47-29.64-5.01-15.81,3.74-13.98,26.55-13.93,27.09,0,0,0,0,0,0l24,65.78,28.15,68.74s14.81,37.04,31.7,50.96,44.44,45.93,44.44,45.93c0,0,21.33,32.3,22.81,59.26s16.3,22.22,16.3,22.22l.02.02,91.98-12.67c-.02.55-3.91,88.06-117.33,111.1,0,0-170.67,23.12-448.89,11.56,0,0-99.55-.89-135.11-9.78,0,0-55.99,0-28.44-70.22,27.55-70.22,85.98-215.33,94.22-222.22,9.04-7.55,8-48,138.67-117.33,0,0,142.21-66.65,179.55-69.33l3.63,30.07s-103.56,24.45-195.11,79.56c-91.55,55.11-110.81,114.96-110.81,114.96l1.09.19-1.08-.18c-23.12,40.89-60,153.34-75.56,188s8.59,38.96,8.59,38.96c11.86,7.7,165.93,11.26,165.93,11.26,87.11,3.56,330.67-16,330.67-16,72.89-8.3,90.96-49.78,90.96-49.78-21.93-5.92-24.89-32.59-24.89-32.59,0-32.89-26.37-64.89-26.37-64.89h-.02c-40.74,8-42.81,5.78-64.59-.89s-34.22-30.67-34.22-30.67h0,0c-9.63-7.85-9.48-43.41-9.48-43.41l-27.26-227.26h0l-10.32-98.67c-6.76-73.33,58.32-81.33,58.32-81.33,0,0,161.33-11.55,249.33-20.44,88-8.89,88.44,62.22,88.44,62.22l3.56,44.44,25.33,276.89c25.33,84.89-49.78,102.22-49.78,102.22l2.22,32.89c98.67-25.33,83.56-108.89,83.56-108.89ZM727.12,121.69l.98-.35,53.82-1.6-54.8,1.94ZM512.29,584.6s-20.74,48.01-94.81,74.67-123.85-5.93-123.85-5.93c0,0-43.26-20.75-62.81-72.97s-.59-108.36-.59-108.36l-.88-.16.88.15c-.29-8.74,11.41-26.81,11.41-26.81,0,0,38.67-75.56,117.78-96,79.11-20.44,126.22,18.67,126.22,18.67h-.02s3.76,44.42,3.76,44.42c-.92-1.25-40.24-54.11-120.18-35.16,0,0-53.78,10.74-92.44,65.41-38.66,54.67-21.78,119.11-21.78,119.11,0,0,11.56,33.33,26.22,45.78h0c41.55,42.96,92.44,33.33,92.44,33.33,0,0,53.78-4.01,92.89-41.78,35.2-33.99,41.45-72.27,42.35-79.6.16.35.34.71.54,1.08h0s0,0,0,0c9.43,16.89,20.65,25.63,20.65,25.63-4.15,13.63-17.78,38.52-17.78,38.52ZM421.42,553.78l19.11-16s12.89-4.89,17.78,4.89-.89,17.78-.89,17.78c0,0-23.11,20.89-29.33,24.89s-12.89,8.89-12.89,8.89c0,0-5.77,2.22-14.22-3.11-8.45-5.33-3.56-16.43-3.56-16.44h0c2.44-4,24-20.89,24-20.89h.01l-17.78-17.33-30.67,25.78h0s-29.78,24.89-29.78,24.89c0,0-11.55,10.22-23.11,3.11-11.56-7.11-3.78-21.03-3.78-21.04h0s132.92-111.05,132.92-111.05v.02s14.64-5.26,19.08,6.29c4.4,11.44-1.44,18.09-1.55,18.21h0s-63.11,53.78-63.11,53.78l17.78,17.33ZM489.39,412.33h0s0,0,0,0h0Z" fill="#6c0007"/></svg>