<?xml version="1.0" encoding="UTF-8"?><svg id="a" xmlns="http://www.w3.org/2000/svg" viewBox="0 0 650 700"><path d="M625,200h-50v-75c0-69.02-55.98-125-125-125h-250c-69.02,0-125,55.97-125,125v75H25c-13.8,0-25,11.2-25,25v75c0,13.8,11.2,25,25,25h50v75.5c0,32.92,3.25,65.78,9.7,98.05l28.23,141.15c7.02,35.07,37.8,60.3,73.55,60.3h277.03c35.75,0,66.52-25.23,73.55-60.3l28.22-141.15c6.48-32.3,9.72-65.12,9.72-98.05v-75.5h50c13.8,0,25-11.2,25-25v-75c0-13.8-11.2-25-25-25ZM100,125c0-55.15,44.85-100,100-100h250c55.15,0,100,44.85,100,100v125h-25v-50c0-27.62-22.38-50-50-50H175c-27.62,0-50,22.38-50,50v50h-25v-125ZM500,200v125c0,13.77-11.22,25-25,25H175c-13.77,0-25-11.23-25-25v-125c0-13.77,11.23-25,25-25h300c13.78,0,25,11.23,25,25ZM25,300v-75h50v75H25ZM550,400.5c0,31.2-3.1,62.55-9.22,93.15l-28.22,141.15c-4.68,23.3-25.28,40.2-49.03,40.2H186.47c-23.75,0-44.37-16.9-49.03-40.2l-28.22-141.15c-6.12-30.6-9.22-61.95-9.22-93.15v-125.5h25v50c0,27.62,22.38,50,50,50h300c27.62,0,50-22.38,50-50v-50h25v125.5ZM625,300h-50v-75h50v75ZM175,325h300v-125H175v125ZM200,225h250v75h-250v-75Z" fill="#6c0007"/></svg>