<?xml version="1.0" encoding="UTF-8"?><svg id="a" xmlns="http://www.w3.org/2000/svg" viewBox="0 0 703.22 762.44"><path d="M57.12.39c65.51,10.28,134.04,41.18,185.72,82.8,34.26-10.73,70.99-16.54,109.13-16.54s75.37,5.88,109.82,16.75C514.7,42.48,580.06,10.43,646.48.43c14.14-2.08,28.85,5.06,35.3,17.98,25.91,61.23,26.79,134.24,10.86,197.99l-.25.99c-4.27,17.11-9.79,39.22-27.51,46.66,13.17,32.38,20.41,67.49,20.41,104.36,0,92.41-37.94,187.49-71.96,272.74h0l-3.44,8.63c-20.66,51.83-66.88,87.53-120.43,97.48l-75.67,14.06c-23.33,4.33-46.62-4.08-61.83-21.05-15.21,16.97-38.49,25.38-61.83,21.05l-75.67-14.06c-53.55-9.95-99.77-45.65-120.43-97.48l-3.44-8.63c-34.02-85.25-71.96-180.33-71.96-272.74,0-36.87,7.24-71.98,20.42-104.36-17.73-7.45-23.11-29.02-27.39-46.17l-.37-1.47C-3.93,155.5-6.86,76.55,22.15,18.41,28.57,5.57,42.93-1.82,57.12.39ZM171.46,114.67c-37.65,22.01-70.33,50.82-95.7,84.69-9.93-40.56-10.05-85.66-1.29-126.46,33.78,9.76,66.84,23.59,96.99,41.77ZM628.18,199.37c-25.2-33.65-57.62-62.31-94.96-84.26,29.97-18.43,62.23-33.2,96.16-42.63,8.87,40.91,8.77,86.2-1.2,126.89ZM247.09,152.22c32.1-12.14,67.54-18.9,104.88-18.9s72.78,6.76,104.88,18.9c96.97,36.66,161.79,121.04,161.79,216.19,0,80.5-33.7,164.5-63.79,239.51h0c-2.32,5.78-4.61,11.51-6.87,17.17-11.7,29.36-38.3,50.6-70.68,56.62l-75.67,14.06-19.25-42.79c-5.38-11.96-17.28-19.66-30.4-19.66s-25.01,7.69-30.4,19.66l-19.26,42.79-75.67-14.06c-32.37-6.01-58.98-27.26-70.68-56.62-2.25-5.66-4.55-11.37-6.86-17.14h0s0-.03,0-.03c-30.09-75.01-63.79-159.01-63.79-239.51,0-95.15,64.82-179.53,161.79-216.19ZM301.97,499.98c-12.63,0-24.17,7.13-29.81,18.43-5.65,11.29-4.43,24.81,3.15,34.91l50,66.67c6.3,8.39,16.17,13.33,26.67,13.33s20.37-4.94,26.67-13.33l50-66.67c7.58-10.1,8.79-23.61,3.15-34.91-5.65-11.29-17.19-18.43-29.81-18.43h-100ZM272.68,337.36c0,27.62-22.39,50-50,50s-50-22.38-50-50,22.39-50,50-50,50,22.38,50,50ZM485.3,383.32c27.61,0,50-22.38,50-50s-22.39-50-50-50-50,22.39-50,50,22.39,50,50,50Z" fill="#6c0007" fill-rule="evenodd"/></svg>