<?xml version="1.0" encoding="UTF-8"?><svg id="a" xmlns="http://www.w3.org/2000/svg" viewBox="0 0 666.62 666.67"><path d="M21.08,530.6c4.71,20.46,19.97,36.86,40.03,43.03l6,26.37h-.5v66.67h533.33v-66.67H156.05c.44-3.08.36-6.21-.23-9.27l-6.53-28.77,345.23-78.53,6.53,28.77c3.62,15.89,19.44,25.84,35.33,22.23l28.77-6.57c15.89-3.6,25.85-19.41,22.24-35.3,0-.01,0-.02,0-.04l-8.37-36.77c14.87-13.87,22.33-34.87,17.5-56.1l-19.67-86.33c-4.86-21.2-21.05-37.96-42.07-43.57l-68.3-112.6c-20.65-33.92-60.66-50.87-99.4-42.1l-262.27,59.67c-38.78,8.79-67.58,41.42-71.47,81l-12.9,131.07c-16.49,14.16-23.8,36.27-19,57.47,0,0,19.63,86.33,19.63,86.33ZM121.75,507.67c-23.83,5.43-47.55-9.49-52.98-33.32-5.43-23.83,9.49-47.55,33.32-52.98s47.55,9.49,52.98,33.32c5.43,23.83-9.49,47.55-33.32,52.98ZM495.82,422.6c-23.57,6.48-47.94-7.38-54.42-30.95-6.48-23.57,7.38-47.94,30.95-54.42,1.25-.34,2.52-.63,3.8-.87,24.05-4.38,47.1,11.56,51.48,35.62,4.11,22.57-9.7,44.54-31.82,50.62ZM119.58,239.73l262.3-59.7c10.78-2.43,21.91,2.27,27.67,11.7l52.83,87.1-18.87,4.3-334.87,76.23-18.93,4.3,9.97-101.4c1.1-11.01,9.11-20.08,19.9-22.53h0ZM546.78,66.67L499.95,0l-16.67,100,83.33,133.33,100,33.33-66.67-84.63,66.67-31.1-66.67-31.1L666.62,0l-119.83,66.67Z" fill="#6c0007"/></svg>