<?xml version="1.0" encoding="UTF-8"?><svg id="a" xmlns="http://www.w3.org/2000/svg" viewBox="0 0 800 638.14"><path d="M774.52,565.49h-16.97c-5.65,0-10.24-4.6-10.24-10.25V182.02c0-14.05-11.43-25.47-25.47-25.47h-46.4c-14.04,0-25.47,11.43-25.47,25.47v103.07h-60.26c.11-.89.19-1.79.19-2.7v-101.62c0-14.55-4.5-37.35-10.02-50.81l-3.39-8.26h2.57c11.74,0,21.3-9.55,21.3-21.3v-11.92c0-10.06-6.94-17.36-16.49-17.36-1.75,0-3.53.25-5.32.74l-20.22,5.57-21-51.16c-5.95-14.49-23.54-26.28-39.2-26.28h-196.51c-15.67,0-33.26,11.79-39.2,26.28l-20.97,51.08-19.97-5.5c-1.79-.49-3.58-.74-5.32-.74-9.56,0-16.49,7.3-16.49,17.36v11.92c0,11.74,9.55,21.3,21.3,21.3h2.29l-3.39,8.25c-5.53,13.46-10.03,36.25-10.03,50.81v101.62c0,.92.08,1.82.19,2.7h-59.98v-103.07c0-14.05-11.43-25.47-25.47-25.47h-46.4c-14.04,0-25.47,11.43-25.47,25.47v373.23c0,5.65-4.6,10.25-10.25,10.25h-16.96c-14.05,0-25.48,11.43-25.48,25.47v21.71c0,14.05,11.43,25.47,25.48,25.47h151.77c14.04,0,25.47-11.43,25.47-25.47v-21.71c0-14.05-11.43-25.47-25.47-25.47h-16.96c-5.65,0-10.25-4.6-10.25-10.25v-216.57h499.94v216.57c0,5.65-4.6,10.25-10.25,10.25h-16.97c-14.04,0-25.47,11.43-25.47,25.47v21.71c0,14.05,11.43,25.47,25.47,25.47h151.77c14.04,0,25.47-11.43,25.47-25.47v-21.71c0-14.05-11.43-25.47-25.48-25.47ZM548.92,179.04v28.96c0,4.68-3.83,8.52-8.52,8.52h-60.35c-4.69,0-8.52-3.83-8.52-8.52v-28.96c0-4.68,3.83-8.52,8.52-8.52h60.35c4.68,0,8.52,3.84,8.52,8.52ZM256.7,110.13l31.76-77.37c3.56-8.67,14.14-15.76,23.5-15.76h175.79c9.37,0,19.94,7.09,23.5,15.76l31.77,77.37c3.56,8.67-1.2,15.76-10.57,15.76h-265.18c-9.37,0-14.13-7.09-10.57-15.76ZM250.23,179.04c0-4.68,3.84-8.52,8.52-8.52h60.34c4.68,0,8.52,3.83,8.52,8.52v28.96c0,4.68-3.84,8.52-8.52,8.52h-60.34c-4.68,0-8.52-3.83-8.52-8.52v-28.96h0ZM280.22,282.39v-25.38h239.27v25.38c0,.92.08,1.82.19,2.7h-239.66c.11-.89.19-1.78.19-2.7Z" fill="#6c0007"/></svg>