<?xml version="1.0" encoding="UTF-8"?><svg id="a" xmlns="http://www.w3.org/2000/svg" viewBox="0 0 799.49 800"><path d="M170.24,508.32c-66.96,0-121.44,54.48-121.44,121.44s54.48,121.44,121.44,121.44,121.44-54.48,121.44-121.44-54.48-121.44-121.44-121.44ZM170.24,717.88c-48.59,0-88.12-39.53-88.12-88.12s39.53-88.12,88.12-88.12,88.12,39.53,88.12,88.12-39.53,88.12-88.12,88.12Z" fill="#6c0007"/><path d="M170.24,586.26c-23.98,0-43.5,19.51-43.5,43.5s19.51,43.5,43.5,43.5,43.5-19.51,43.5-43.5-19.51-43.5-43.5-43.5ZM170.24,639.94c-5.61,0-10.18-4.57-10.18-10.18s4.57-10.18,10.18-10.18,10.18,4.57,10.18,10.18-4.57,10.18-10.18,10.18Z" fill="#6c0007"/><path d="M268.14,199.06c34.34,0,62.28-27.94,62.28-62.28s-27.94-62.28-62.28-62.28-62.28,27.94-62.28,62.28,27.94,62.28,62.28,62.28ZM268.14,107.83c15.97,0,28.96,12.99,28.96,28.96s-12.99,28.96-28.96,28.96-28.96-12.99-28.96-28.96,12.99-28.96,28.96-28.96Z" fill="#6c0007"/><circle cx="693.12" cy="349.93" r="25.38" fill="#6c0007"/><path d="M748.68,440.58c30.46-18.73,50.82-52.35,50.82-90.65s-19.88-71.11-49.72-89.97L336.7,18.41l.04.12C316.56,6.77,293.13,0,268.14,0c-60.06,0-111.16,38.92-129.5,92.85-.68,2-133.4,494.76-134.31,498.71v.03s0,0,0,0c-2.82,12.27-4.32,25.05-4.32,38.17,0,93.87,76.37,170.24,170.24,170.24,32.22,0,62.37-9,88.08-24.61,2.21-1.34,489.77-334.44,490.36-334.8ZM670.08,453.76l-338.89,231.45c6.01-17.39,9.28-36.04,9.28-55.44,0-93.87-76.37-170.24-170.24-170.24-39.67,0-76.2,13.64-105.18,36.47l80.04-299.5c22.21,45.59,69.01,77.08,123.04,77.08,75.42,0,136.78-61.36,136.78-136.78,0-15.47-2.62-30.32-7.37-44.2l265.6,155.29c-44.1,12.98-76.4,53.8-76.4,102.05,0,50.74,35.72,93.27,83.33,103.83ZM693.12,422.98c-40.28,0-73.05-32.77-73.05-73.05s32.77-73.05,73.05-73.05,73.05,32.77,73.05,73.05c0,40.28-32.77,73.05-73.05,73.05ZM268.14,33.32c57.05,0,103.46,46.41,103.46,103.46s-46.41,103.46-103.46,103.46-103.46-46.41-103.46-103.46,46.41-103.46,103.46-103.46ZM33.32,629.76c0-75.49,61.42-136.91,136.91-136.91s136.91,61.42,136.91,136.91-61.42,136.91-136.91,136.91-136.91-61.42-136.91-136.91Z" fill="#6c0007"/></svg>