<?xml version="1.0" encoding="UTF-8"?><svg id="a" xmlns="http://www.w3.org/2000/svg" viewBox="0 0 1468.61 655.96"><circle cx="254.29" cy="314.15" r="160.73" fill="#6c0007" stroke="#6c0007" stroke-miterlimit="10"/><circle cx="736.96" cy="314.15" r="160.73" fill="#6c0007" stroke="#6c0007" stroke-miterlimit="10"/><circle cx="1214.29" cy="314.15" r="160.73" fill="#6c0007" stroke="#6c0007" stroke-miterlimit="10"/><circle cx="254.29" cy="314.15" r="224.06" fill="none" stroke="#6c0007" stroke-miterlimit="10"/><circle cx="77.4" cy="70.72" r="31.11" fill="none" stroke="#6c0007" stroke-miterlimit="10"/><path d="M.51.5h323.11l68.44,63.11v73.83s-60.89-51.61-144-47.36c0,0-179.67-1.99-215.84,193.99H.5V101.83h108v-62.22H.5V.5h.01Z" fill="#6c0007" stroke="#6c0007" stroke-miterlimit="10"/><path d="M77.4,39.61s-29.04,0-31.11,31.11c0,0-.37,29.41,31.11,31.11H.51v-62.22h76.89Z" fill="#6c0007" stroke="#6c0007" stroke-miterlimit="10"/><path d="M78.66,39.61s28.15.3,29.85,31.11c0,0,1.7,26.96-29.85,31.11h29.85v-62.22h-29.85Z" fill="#6c0007" stroke="#6c0007" stroke-miterlimit="10"/><circle cx="78.74" cy="558.8" r="32.15" fill="none" stroke="#6c0007" stroke-miterlimit="10"/><circle cx="506.44" cy="498.05" r="32.15" fill="none" stroke="#6c0007" stroke-miterlimit="10"/><circle cx="614.29" cy="587.54" r="32.15" fill="none" stroke="#6c0007" stroke-miterlimit="10"/><circle cx="813.4" cy="587.54" r="32.15" fill="none" stroke="#6c0007" stroke-miterlimit="10"/><circle cx="966.88" cy="498.05" r="32.15" fill="none" stroke="#6c0007" stroke-miterlimit="10"/><circle cx="1409.55" cy="559.09" r="32.15" fill="none" stroke="#6c0007" stroke-miterlimit="10"/><circle cx="1409.55" cy="69.61" r="32.15" fill="none" stroke="#6c0007" stroke-miterlimit="10"/><circle cx="966.29" cy="130.65" r="32.15" fill="none" stroke="#6c0007" stroke-miterlimit="10"/><circle cx="507.03" cy="130.65" r="32.15" fill="none" stroke="#6c0007" stroke-miterlimit="10"/><path d="M.51,284.08v343.61h78.22v-36.74s-31.26-.3-32.15-32.15c0,0-.67-29.85,32.15-32.15v-73.26s-60.34-64.11-46.5-169.31H.51h0Z" fill="#6c0007" stroke="#6c0007" stroke-miterlimit="10"/><path d="M78.74,627.68h187.78l61.33-60.07v-41.75s-141.78,56.43-249.11-72.47v73.26h32.15v64.3h-32.15v36.74h0Z" fill="#6c0007" stroke="#6c0007" stroke-miterlimit="10"/><path d="M78.74,525.83s32.15,3.7,32.15,32.96c0,0,.96,28.52-32.15,32.15h32.15v-64.3l-32.15-.81h0Z" fill="#6c0007" stroke="#6c0007" stroke-miterlimit="10"/><path d="M478.35,310.65s12.75,149.98-150.51,215.21v41.75h178.59v-37.41h-32.15v-64.3h32.15l.59-303.11h-32.15v-64.3h32.15v-35.85l-114.96.96v73.83s85.78,62.61,86.29,173.2v.02Z" fill="#6c0007" stroke="#6c0007" stroke-miterlimit="10"/><path d="M506.44,465.91s-28.3-1.52-32.15,32.15c0,0-.96,29.96,32.15,32.15h-32.15v-64.3h32.15Z" fill="#6c0007" stroke="#6c0007" stroke-miterlimit="10"/><path d="M507.03,98.5s-30.07.7-32.15,32.15c0,0-.07,29.52,32.15,32.15h-32.15v-64.3h32.15Z" fill="#6c0007" stroke="#6c0007" stroke-miterlimit="10"/><circle cx="736.96" cy="314.15" r="224.06" fill="none" stroke="#6c0007" stroke-miterlimit="10"/><circle cx="1217.63" cy="314.15" r="224.06" fill="none" stroke="#6c0007" stroke-miterlimit="10"/><path d="M507.03,62.65v35.85c33.33,2.48,32.15,32.15,32.15,32.15-2.96,33.07-32.15,32.15-32.15,32.15l-.3,151.35h6.16c15.27-228.39,224.06-224.06,224.06-224.06l-.37-27.62-229.56.19h.01Z" fill="#6c0007" stroke="#6c0007" stroke-miterlimit="10"/><path d="M512.89,314.15s-1.68,205.07,217.21,224.06v17.17h-147.96v98.93l-57.78-86.7h-17.93v-37.41h32.15l.59-64.31h-32.74l.3-151.75h6.16Z" fill="#6c0007" stroke="#6c0007" stroke-miterlimit="10"/><path d="M736.59,62.46l261.85.69v67.5s1-29.39-32.15-32.15c0,0-29.07-1.69-32.15,32.15h-68.58s-51.01-39.99-128.61-40.56l-.37-27.62h.01Z" fill="#6c0007" stroke="#6c0007" stroke-miterlimit="10"/><path d="M865.56,130.65s95.65,61.47,95.39,178.17h32.61l4.87-178.17s-1.67,29.57-32.15,32.15c0,0-31.74-1.39-32.15-32.15h-68.58.01Z" fill="#6c0007" stroke="#6c0007" stroke-miterlimit="10"/><path d="M1217.63,90.09s-31.12-1.02-70.25,11.13c-43.23,13.43-96.23,42.93-127.81,107.67-13.08,26.81-22.49,59.67-26,99.93h-32.61l37.48-178.17V63.15h87.89l60.89-60.44h262.33v34.76h-32.15v64.3h-88.2s-24.25-9.62-71.56-11.67h-.01Z" fill="#6c0007" stroke="#6c0007" stroke-miterlimit="10"/><path d="M1409.55,2.71h58.55v66.9h-26.41s1.74-29.39-32.15-32.15c0,0-32.15,2.16-32.15,32.15h-24.41V2.71h56.57Z" fill="#6c0007" stroke="#6c0007" stroke-miterlimit="10"/><path d="M1441.7,69.61s.41,28.53-32.15,32.15c0,0-29.67-.65-32.15-32.15h-86.63v32.69s144.99,44.93,150.86,206.52h26.47V69.61h-26.41.01Z" fill="#6c0007" stroke="#6c0007" stroke-miterlimit="10"/><path d="M1214.29,538.21s217.76-.47,227.34-229.4h26.47v318.93h-26.41v-100.8h-64.3v64.3h-159.77l-3.34-53.03h.01Z" fill="#6c0007" stroke="#6c0007" stroke-miterlimit="10"/><path d="M1377.4,559.09s-1.07-29.17,32.15-32.15c0,0,29.96,1.05,32.15,32.15h26.41v-52.68h-109.11v52.68h18.41-.01Z" fill="#6c0007" stroke="#6c0007" stroke-miterlimit="10"/><path d="M1377.4,559.09s0,30.31,32.15,32.15c0,0,30.85-1.02,32.15-32.15h26.41v68.65h-105.33v-68.65h14.63-.01Z" fill="#6c0007" stroke="#6c0007" stroke-miterlimit="10"/><polygon points="1214.29 538.21 1214.29 627.74 1362.77 627.74 1362.77 591.24 1214.29 538.21" fill="#6c0007" stroke="#6c0007" stroke-miterlimit="10"/><path d="M993.57,308.82s-6.69,208.52,220.72,229.4v89.53h-5.96l-66.22-60.22h-216l.22-37.32h72.93l-.22-64.3h-64.3v-46.37s31.3-51.65,26.22-110.72h32.61Z" fill="#6c0007" stroke="#6c0007" stroke-miterlimit="10"/><path d="M730.1,538.21s128,11.23,204.63-118.68v147.98h-16.63l-59.56,86.79h-276.41v-34.63l263.41,2.06v-66.35h-115.45v-17.17h0Z" fill="#6c0007" stroke="#6c0007" stroke-miterlimit="10"/><path d="M506.44,465.91s29.96.02,32.15,32.15c0,0,2.41,27.72-32.15,32.15h32.15l.59-64.31h-32.74Z" fill="#6c0007" stroke="#6c0007" stroke-miterlimit="10"/><path d="M614.29,555.39s-29.22-1.17-32.15,32.15c0,0-1.67,28.76,32.15,32.15h-32.15v-64.3h32.15Z" fill="#6c0007" stroke="#6c0007" stroke-miterlimit="10"/><path d="M813.4,555.39s28.7-1.61,32.15,32.15c0,0,.93,29.42-32.15,32.15v1.81l32.15.25v-66.35h-32.15Z" fill="#6c0007" stroke="#6c0007" stroke-miterlimit="10"/><path d="M614.29,555.39s30.93.39,32.15,32.15c0,0,1.59,28.53-32.15,32.15l199.11,1.81v-1.81s-29.89-1.24-32.15-32.15c0,0,.56-29.84,32.15-32.15s1.34,0,1.34,0h-200.45Z" fill="#6c0007" stroke="#6c0007" stroke-miterlimit="10"/><path d="M934.74,498.05s.85,31.2,32.15,32.15c0,0,29,1.87,32.15-32.15l.22,32.15-64.52.02v-32.17h0Z" fill="#6c0007" stroke="#6c0007" stroke-miterlimit="10"/><path d="M934.74,498.05s1.52-30.28,32.15-32.15c0,0,30.11-.28,32.15,32.15v-32.15h-64.3v32.15Z" fill="#6c0007" stroke="#6c0007" stroke-miterlimit="10"/><path d="M1020.4,207.22s26.85-65.22,115.32-102.05-66.42-5.94-66.42-5.94l-67.56,98.89,18.66,9.11h0Z" fill="#6c0007" stroke="#6c0007" stroke-miterlimit="10"/><polygon points=".5 .5 46.29 .5 46.29 230.7 .51 230.7 .5 .5" fill="#6c0007" stroke="#6c0007" stroke-miterlimit="10"/><polygon points="30.23 314.15 30.23 230.7 .51 230.7 .51 627.69 46.59 627.69 46.59 398.35 23.55 397.61 30.23 314.15" fill="#6c0007" stroke="#6c0007" stroke-miterlimit="10"/><polygon points="291.77 567.61 363.33 567.61 363.33 514.94 327.85 525.86 279.33 544.72 291.77 567.61" fill="#6c0007" stroke="#6c0007" stroke-miterlimit="10"/><polygon points="474.28 530.2 582.13 530.2 582.14 587.54 537.64 587.54 524.36 567.61 474.29 567.61 474.28 530.2" fill="#6c0007" stroke="#6c0007" stroke-miterlimit="10"/><polygon points="474.29 498.06 474.29 549.61 426.44 549.61 426.44 457.8 474.29 457.8 474.29 498.06" fill="#6c0007" stroke="#6c0007" stroke-miterlimit="10"/><polygon points="506.44 465.9 474.28 465.9 474.29 359.06 517.4 359.06 539.17 465.89 506.44 465.9" fill="#6c0007" stroke="#6c0007" stroke-miterlimit="10"/><polygon points="474.87 162.79 539.17 162.8 539.17 208.8 518.44 208.8 520.38 262.33 510.88 262.33 512.9 314.15 478.35 314.15 474.87 162.79" fill="#6c0007" stroke="#6c0007" stroke-miterlimit="10"/><line x1="377.99" y1="86.94" x2="420.66" y2="83.83" fill="#6c0007" stroke="#6c0007" stroke-miterlimit="10"/><polygon points="386.88 67.39 392.06 63.61 507.02 62.64 560.21 62.64 560.21 98.5 386.88 94.05 386.88 67.39" fill="#6c0007" stroke="#6c0007" stroke-miterlimit="10"/><polygon points="696.66 62.5 696.66 86.94 777.99 87.11 777.99 62.57 696.66 62.5" fill="#6c0007" stroke="#6c0007" stroke-miterlimit="10"/><polygon points="934.14 98.5 934.14 153.42 894.88 153.42 863.77 125.96 837.99 96.56 934.14 96.56 934.14 98.5" fill="#6c0007" stroke="#6c0007" stroke-miterlimit="10"/><polygon points="966.29 98.5 966.29 63.07 1039.33 63.15 1070.88 122.05 1015.77 135.83 1001.74 101.61 985.99 90.09 966.29 98.5" fill="#6c0007" stroke="#6c0007" stroke-miterlimit="10"/><polygon points="646.44 587.54 646.44 544.28 781.25 544.28 781.25 634.94 646.44 633.17 646.44 587.54" fill="#6c0007" stroke="#6c0007" stroke-miterlimit="10"/><path d="M966.88,465.9h-53.33v-6.07l16-23.56,17.78-30.67,13.69-22.22,22.75,6.22,19.56,49.78s33.33,27.13,31.11,28.9-6.22,19.1-7.56,19.1-25.33,19.02-25.33,19.02l3.11-38.13s-2.81-8.89-5.63-8.89-32.15,6.51-32.15,6.51Z" fill="#6c0007" stroke="#6c0007" stroke-miterlimit="10"/><polygon points="1199.18 536.51 1214.29 538.21 1237.25 537.36 1293.1 559.09 1317.55 593.41 1317.55 627.74 1208.33 627.75 1166.19 589.43 1199.18 536.51" fill="#6c0007" stroke="#6c0007" stroke-miterlimit="10"/><polygon points="1409.55 591.24 1384.66 591.24 1377.4 559.09 1333.55 556.72 1328.66 627.74 1461.1 627.75 1461.1 556.72 1441.7 559.09 1441.69 592.24 1409.55 591.24" fill="#6c0007" stroke="#6c0007" stroke-miterlimit="10"/></svg>